<svg xmlns="http://www.w3.org/2000/svg" width="810" viewBox="0 0 810 810" height="810" version="1.0"><path fill="#FFF" d="M 238.75 458.546875 C 237.339844 457.148438 235.867188 455.824219 234.328125 454.574219 C 232.792969 453.320312 231.195312 452.148438 229.542969 451.050781 C 227.890625 449.953125 226.1875 448.941406 224.4375 448.011719 C 222.683594 447.082031 220.890625 446.238281 219.058594 445.484375 C 217.222656 444.730469 215.355469 444.066406 213.457031 443.492188 C 211.558594 442.921875 209.636719 442.441406 207.691406 442.058594 C 205.746094 441.671875 203.785156 441.382812 201.8125 441.191406 C 199.835938 440.996094 197.859375 440.898438 195.875 440.898438 C 193.890625 440.898438 191.914062 440.996094 189.941406 441.191406 C 187.964844 441.382812 186.007812 441.671875 184.058594 442.058594 C 182.113281 442.441406 180.191406 442.921875 178.292969 443.492188 C 176.394531 444.066406 174.527344 444.730469 172.695312 445.484375 C 170.859375 446.238281 169.066406 447.082031 167.316406 448.011719 C 165.5625 448.941406 163.863281 449.953125 162.207031 451.050781 C 160.554688 452.148438 158.960938 453.320312 157.421875 454.574219 C 155.882812 455.824219 154.410156 457.148438 153.003906 458.546875 C 149.136719 462.410156 146.929688 467.195312 144.355469 471.609375 L 121.722656 455.601562 L 121.722656 344.644531 C 121.722656 342.65625 121.625 340.671875 121.429688 338.695312 C 121.234375 336.714844 120.941406 334.75 120.554688 332.800781 C 120.167969 330.847656 119.683594 328.921875 119.105469 327.019531 C 118.527344 325.117188 117.859375 323.246094 117.097656 321.40625 C 116.335938 319.570312 115.488281 317.773438 114.550781 316.019531 C 113.613281 314.265625 112.59375 312.5625 111.488281 310.910156 C 110.382812 309.257812 109.199219 307.660156 107.9375 306.125 C 106.675781 304.585938 105.34375 303.113281 103.9375 301.707031 C 102.53125 300.300781 101.058594 298.96875 99.519531 297.707031 C 97.984375 296.445312 96.386719 295.261719 94.734375 294.15625 C 93.082031 293.050781 91.375 292.03125 89.621094 291.09375 C 87.867188 290.15625 86.074219 289.304688 84.234375 288.546875 C 82.398438 287.785156 80.527344 287.117188 78.625 286.539062 C 76.722656 285.960938 74.796875 285.476562 72.84375 285.089844 C 70.894531 284.703125 68.929688 284.410156 66.949219 284.214844 C 64.972656 284.019531 62.988281 283.921875 61 283.921875 C 59.007812 283.921875 57.027344 284.019531 55.046875 284.214844 C 53.066406 284.410156 51.101562 284.703125 49.152344 285.089844 C 47.203125 285.476562 45.273438 285.960938 43.371094 286.539062 C 41.46875 287.117188 39.597656 287.785156 37.761719 288.546875 C 35.921875 289.304688 34.128906 290.15625 32.375 291.09375 C 30.621094 292.03125 28.917969 293.050781 27.261719 294.15625 C 25.609375 295.261719 24.015625 296.445312 22.476562 297.707031 C 20.9375 298.96875 19.46875 300.300781 18.0625 301.707031 C 16.65625 303.113281 15.320312 304.585938 14.058594 306.125 C 12.796875 307.660156 11.613281 309.257812 10.507812 310.910156 C 9.40625 312.5625 8.382812 314.265625 7.445312 316.019531 C 6.507812 317.773438 5.660156 319.570312 4.898438 321.40625 C 4.136719 323.246094 3.46875 325.117188 2.890625 327.019531 C 2.3125 328.921875 1.832031 330.847656 1.441406 332.800781 C 1.054688 334.75 0.761719 336.714844 0.570312 338.695312 C 0.375 340.671875 0.277344 342.65625 0.277344 344.644531 L 0.277344 528.101562 C 0.261719 530.292969 0.367188 532.480469 0.59375 534.660156 C 0.820312 536.839844 1.164062 539 1.628906 541.144531 C 2.09375 543.285156 2.671875 545.394531 3.367188 547.472656 C 4.0625 549.554688 4.871094 551.585938 5.792969 553.578125 C 6.710938 555.566406 7.738281 557.5 8.871094 559.378906 C 10 561.253906 11.234375 563.0625 12.5625 564.804688 C 13.894531 566.546875 15.316406 568.210938 16.832031 569.792969 C 18.347656 571.378906 19.941406 572.878906 21.621094 574.285156 L 202.683594 738.238281 L 202.683594 789.941406 C 202.683594 790.605469 202.714844 791.265625 202.78125 791.925781 C 202.847656 792.585938 202.945312 793.242188 203.074219 793.890625 C 203.203125 794.542969 203.363281 795.183594 203.554688 795.820312 C 203.746094 796.453125 203.972656 797.078125 204.226562 797.6875 C 204.476562 798.300781 204.761719 798.898438 205.074219 799.484375 C 205.386719 800.070312 205.726562 800.636719 206.09375 801.1875 C 206.464844 801.738281 206.859375 802.269531 207.277344 802.785156 C 207.699219 803.296875 208.144531 803.785156 208.613281 804.253906 C 209.082031 804.722656 209.570312 805.167969 210.085938 805.589844 C 210.597656 806.011719 211.128906 806.40625 211.679688 806.773438 C 212.230469 807.140625 212.796875 807.480469 213.382812 807.792969 C 213.96875 808.105469 214.566406 808.390625 215.179688 808.644531 C 215.792969 808.898438 216.414062 809.121094 217.050781 809.3125 C 217.683594 809.503906 218.324219 809.664062 218.976562 809.796875 C 219.625 809.925781 220.28125 810.023438 220.941406 810.085938 C 221.601562 810.152344 222.261719 810.183594 222.925781 810.183594 C 223.585938 810.183594 224.25 810.152344 224.910156 810.085938 C 225.570312 810.023438 226.222656 809.925781 226.875 809.796875 C 227.523438 809.664062 228.164062 809.503906 228.800781 809.3125 C 229.433594 809.121094 230.058594 808.898438 230.671875 808.644531 C 231.28125 808.390625 231.882812 808.105469 232.464844 807.792969 C 233.050781 807.480469 233.617188 807.140625 234.171875 806.773438 C 234.722656 806.40625 235.253906 806.011719 235.765625 805.589844 C 236.277344 805.167969 236.769531 804.722656 237.238281 804.253906 C 237.707031 803.785156 238.152344 803.296875 238.570312 802.785156 C 238.992188 802.269531 239.386719 801.738281 239.753906 801.1875 C 240.121094 800.636719 240.464844 800.070312 240.777344 799.484375 C 241.089844 798.898438 241.371094 798.300781 241.625 797.6875 C 241.878906 797.078125 242.101562 796.453125 242.292969 795.820312 C 242.488281 795.183594 242.648438 794.542969 242.777344 793.890625 C 242.90625 793.242188 243.003906 792.585938 243.066406 791.925781 C 243.132812 791.265625 243.164062 790.605469 243.164062 789.941406 L 243.164062 729.222656 C 243.167969 727.800781 243.023438 726.398438 242.734375 725.011719 C 242.441406 723.621094 242.011719 722.277344 241.441406 720.980469 C 240.871094 719.679688 240.175781 718.453125 239.347656 717.300781 C 238.523438 716.148438 237.585938 715.089844 236.542969 714.132812 L 48.117188 543.742188 C 46.96875 542.785156 45.9375 541.71875 45.027344 540.535156 C 44.113281 539.355469 43.335938 538.089844 42.703125 536.738281 C 42.066406 535.386719 41.582031 533.984375 41.257812 532.527344 C 40.929688 531.070312 40.761719 529.59375 40.757812 528.101562 L 40.757812 344.644531 C 40.757812 343.984375 40.789062 343.320312 40.855469 342.660156 C 40.921875 342 41.015625 341.347656 41.148438 340.695312 C 41.277344 340.046875 41.4375 339.40625 41.628906 338.769531 C 41.820312 338.136719 42.042969 337.511719 42.296875 336.898438 C 42.550781 336.289062 42.835938 335.6875 43.148438 335.105469 C 43.460938 334.519531 43.800781 333.953125 44.167969 333.398438 C 44.535156 332.847656 44.929688 332.316406 45.351562 331.804688 C 45.773438 331.292969 46.21875 330.800781 46.6875 330.332031 C 47.15625 329.863281 47.644531 329.417969 48.15625 329 C 48.671875 328.578125 49.203125 328.183594 49.753906 327.816406 C 50.304688 327.449219 50.871094 327.105469 51.457031 326.792969 C 52.042969 326.480469 52.640625 326.199219 53.253906 325.945312 C 53.863281 325.691406 54.488281 325.46875 55.121094 325.277344 C 55.757812 325.082031 56.398438 324.921875 57.050781 324.792969 C 57.699219 324.664062 58.355469 324.566406 59.015625 324.503906 C 59.675781 324.4375 60.335938 324.40625 61 324.40625 C 61.660156 324.40625 62.324219 324.4375 62.980469 324.503906 C 63.640625 324.566406 64.296875 324.664062 64.945312 324.792969 C 65.597656 324.921875 66.238281 325.082031 66.875 325.277344 C 67.507812 325.46875 68.132812 325.691406 68.746094 325.945312 C 69.355469 326.199219 69.957031 326.480469 70.539062 326.792969 C 71.125 327.105469 71.691406 327.449219 72.242188 327.816406 C 72.792969 328.183594 73.328125 328.578125 73.839844 329 C 74.351562 329.417969 74.84375 329.863281 75.3125 330.332031 C 75.78125 330.800781 76.222656 331.292969 76.644531 331.804688 C 77.066406 332.316406 77.460938 332.847656 77.828125 333.398438 C 78.195312 333.953125 78.535156 334.519531 78.847656 335.105469 C 79.160156 335.6875 79.445312 336.289062 79.699219 336.898438 C 79.953125 337.511719 80.175781 338.136719 80.367188 338.769531 C 80.558594 339.40625 80.722656 340.046875 80.851562 340.695312 C 80.980469 341.347656 81.078125 342 81.140625 342.660156 C 81.207031 343.320312 81.238281 343.984375 81.238281 344.644531 L 81.238281 466.089844 C 81.234375 467.71875 81.425781 469.320312 81.808594 470.902344 C 82.195312 472.484375 82.765625 473.996094 83.515625 475.4375 C 84.269531 476.882812 85.1875 478.214844 86.261719 479.433594 C 87.339844 480.652344 88.550781 481.726562 89.886719 482.652344 L 138.28125 516.875 C 139.46875 522.140625 141.339844 527.148438 143.902344 531.898438 C 146.464844 536.648438 149.621094 540.964844 153.371094 544.84375 L 231.574219 618.816406 C 232.054688 619.269531 232.558594 619.703125 233.082031 620.105469 C 233.605469 620.511719 234.148438 620.890625 234.710938 621.242188 C 235.273438 621.597656 235.851562 621.917969 236.445312 622.214844 C 237.039062 622.511719 237.644531 622.777344 238.265625 623.011719 C 238.882812 623.25 239.511719 623.453125 240.152344 623.628906 C 240.792969 623.800781 241.4375 623.945312 242.09375 624.054688 C 242.746094 624.164062 243.402344 624.242188 244.066406 624.289062 C 244.726562 624.335938 245.386719 624.347656 246.050781 624.328125 C 246.714844 624.308594 247.375 624.257812 248.03125 624.171875 C 248.6875 624.089844 249.339844 623.972656 249.988281 623.824219 C 250.632812 623.675781 251.269531 623.496094 251.898438 623.289062 C 252.527344 623.078125 253.144531 622.835938 253.75 622.5625 C 254.355469 622.292969 254.945312 621.992188 255.519531 621.664062 C 256.09375 621.335938 256.652344 620.976562 257.191406 620.59375 C 257.734375 620.210938 258.253906 619.800781 258.753906 619.363281 C 259.253906 618.929688 259.730469 618.46875 260.1875 617.988281 C 260.640625 617.507812 261.070312 617.003906 261.476562 616.480469 C 261.882812 615.953125 262.261719 615.410156 262.613281 614.847656 C 262.964844 614.289062 263.289062 613.710938 263.585938 613.117188 C 263.878906 612.523438 264.144531 611.917969 264.382812 611.296875 C 264.617188 610.679688 264.824219 610.046875 264.996094 609.410156 C 265.171875 608.769531 265.3125 608.121094 265.421875 607.46875 C 265.535156 606.816406 265.613281 606.15625 265.65625 605.496094 C 265.703125 604.835938 265.71875 604.171875 265.699219 603.511719 C 265.679688 602.847656 265.628906 602.1875 265.542969 601.53125 C 265.460938 600.871094 265.34375 600.21875 265.195312 599.574219 C 265.046875 598.929688 264.867188 598.289062 264.65625 597.664062 C 264.445312 597.035156 264.207031 596.417969 263.933594 595.8125 C 263.664062 595.207031 263.363281 594.617188 263.035156 594.042969 C 262.703125 593.464844 262.347656 592.910156 261.964844 592.367188 C 261.578125 591.828125 261.167969 591.308594 260.734375 590.808594 C 260.300781 590.308594 259.839844 589.832031 259.359375 589.375 L 181.523438 515.773438 C 181.054688 515.308594 180.605469 514.820312 180.183594 514.3125 C 179.761719 513.800781 179.367188 513.273438 178.996094 512.722656 C 178.625 512.175781 178.285156 511.609375 177.972656 511.027344 C 177.65625 510.445312 177.371094 509.847656 177.117188 509.238281 C 176.863281 508.628906 176.640625 508.007812 176.445312 507.375 C 176.253906 506.742188 176.089844 506.101562 175.960938 505.453125 C 175.832031 504.804688 175.734375 504.148438 175.667969 503.492188 C 175.601562 502.832031 175.570312 502.171875 175.570312 501.511719 C 175.570312 500.851562 175.601562 500.191406 175.667969 499.53125 C 175.734375 498.875 175.832031 498.21875 175.960938 497.570312 C 176.089844 496.921875 176.253906 496.28125 176.445312 495.648438 C 176.640625 495.015625 176.863281 494.394531 177.117188 493.785156 C 177.371094 493.175781 177.65625 492.578125 177.972656 491.996094 C 178.285156 491.414062 178.625 490.847656 178.996094 490.300781 C 179.367188 489.75 179.761719 489.222656 180.183594 488.714844 C 180.605469 488.203125 181.054688 487.714844 181.523438 487.25 C 182.003906 486.777344 182.503906 486.328125 183.03125 485.902344 C 183.554688 485.480469 184.097656 485.082031 184.660156 484.710938 C 185.226562 484.339844 185.804688 484 186.402344 483.6875 C 187 483.375 187.613281 483.089844 188.238281 482.839844 C 188.863281 482.585938 189.5 482.367188 190.148438 482.175781 C 190.796875 481.988281 191.449219 481.832031 192.113281 481.707031 C 192.777344 481.582031 193.445312 481.492188 194.117188 481.433594 C 194.789062 481.375 195.460938 481.347656 196.136719 481.359375 C 196.8125 481.367188 197.484375 481.40625 198.152344 481.484375 C 198.824219 481.558594 199.488281 481.667969 200.148438 481.808594 C 200.808594 481.949219 201.460938 482.121094 202.101562 482.328125 C 202.746094 482.53125 203.375 482.769531 203.996094 483.039062 C 204.613281 483.304688 205.21875 483.605469 205.808594 483.933594 C 206.398438 484.261719 206.96875 484.617188 207.523438 485 C 208.078125 485.386719 208.609375 485.796875 209.125 486.234375 C 209.636719 486.671875 210.128906 487.132812 210.597656 487.621094 L 318.242188 590.109375 C 319.167969 591.042969 319.996094 592.058594 320.726562 593.152344 C 321.457031 594.246094 322.074219 595.402344 322.578125 596.617188 C 323.085938 597.832031 323.46875 599.082031 323.726562 600.371094 C 323.988281 601.660156 324.121094 602.964844 324.128906 604.28125 L 324.128906 789.941406 C 324.128906 790.605469 324.160156 791.265625 324.226562 791.925781 C 324.292969 792.585938 324.386719 793.242188 324.519531 793.890625 C 324.648438 794.542969 324.808594 795.183594 325 795.820312 C 325.191406 796.453125 325.414062 797.078125 325.667969 797.6875 C 325.921875 798.300781 326.207031 798.898438 326.519531 799.484375 C 326.832031 800.070312 327.171875 800.636719 327.539062 801.1875 C 327.910156 801.738281 328.300781 802.269531 328.722656 802.785156 C 329.144531 803.296875 329.589844 803.785156 330.058594 804.253906 C 330.527344 804.722656 331.015625 805.167969 331.527344 805.589844 C 332.042969 806.011719 332.574219 806.40625 333.125 806.773438 C 333.675781 807.140625 334.242188 807.480469 334.828125 807.792969 C 335.414062 808.105469 336.011719 808.390625 336.625 808.644531 C 337.234375 808.898438 337.859375 809.121094 338.492188 809.3125 C 339.128906 809.503906 339.769531 809.664062 340.421875 809.796875 C 341.070312 809.925781 341.726562 810.023438 342.386719 810.085938 C 343.046875 810.152344 343.707031 810.183594 344.371094 810.183594 C 345.03125 810.183594 345.695312 810.152344 346.355469 810.085938 C 347.011719 810.023438 347.667969 809.925781 348.316406 809.796875 C 348.96875 809.664062 349.609375 809.503906 350.246094 809.3125 C 350.878906 809.121094 351.503906 808.898438 352.117188 808.644531 C 352.726562 808.390625 353.328125 808.105469 353.910156 807.792969 C 354.496094 807.480469 355.0625 807.140625 355.613281 806.773438 C 356.164062 806.40625 356.699219 806.011719 357.210938 805.589844 C 357.722656 805.167969 358.214844 804.722656 358.683594 804.253906 C 359.152344 803.785156 359.59375 803.296875 360.015625 802.785156 C 360.4375 802.269531 360.832031 801.738281 361.199219 801.1875 C 361.566406 800.636719 361.90625 800.070312 362.21875 799.484375 C 362.53125 798.898438 362.816406 798.300781 363.070312 797.6875 C 363.324219 797.078125 363.546875 796.453125 363.738281 795.820312 C 363.929688 795.183594 364.09375 794.542969 364.222656 793.890625 C 364.351562 793.242188 364.449219 792.585938 364.511719 791.925781 C 364.578125 791.265625 364.609375 790.605469 364.609375 789.941406 L 364.609375 604.28125 C 364.597656 600.261719 364.195312 596.28125 363.402344 592.339844 C 362.609375 588.402344 361.4375 584.578125 359.890625 580.867188 C 358.34375 577.15625 356.449219 573.636719 354.210938 570.296875 C 351.96875 566.960938 349.425781 563.875 346.578125 561.039062 Z M 238.75 458.546875"/><path fill="#FFF" d="M 749.183594 283.921875 C 747.195312 283.921875 745.214844 284.019531 743.234375 284.214844 C 741.253906 284.410156 739.289062 284.703125 737.339844 285.089844 C 735.390625 285.476562 733.460938 285.960938 731.558594 286.539062 C 729.65625 287.113281 727.785156 287.785156 725.949219 288.546875 C 724.109375 289.304688 722.316406 290.15625 720.5625 291.09375 C 718.808594 292.03125 717.105469 293.050781 715.449219 294.15625 C 713.796875 295.261719 712.199219 296.445312 710.664062 297.707031 C 709.125 298.96875 707.65625 300.300781 706.25 301.707031 C 704.84375 303.113281 703.507812 304.585938 702.246094 306.125 C 700.984375 307.660156 699.800781 309.257812 698.695312 310.910156 C 697.59375 312.5625 696.570312 314.265625 695.632812 316.019531 C 694.695312 317.773438 693.847656 319.570312 693.085938 321.40625 C 692.324219 323.246094 691.65625 325.117188 691.078125 327.019531 C 690.5 328.921875 690.019531 330.847656 689.628906 332.800781 C 689.242188 334.75 688.949219 336.714844 688.753906 338.695312 C 688.5625 340.671875 688.464844 342.65625 688.464844 344.644531 L 688.464844 455.601562 L 665.832031 471.609375 C 663.253906 467.195312 661.046875 462.410156 657.183594 458.546875 C 655.785156 457.148438 654.328125 455.820312 652.800781 454.5625 C 651.277344 453.304688 649.695312 452.128906 648.054688 451.027344 C 646.414062 449.925781 644.722656 448.90625 642.984375 447.96875 C 641.242188 447.035156 639.460938 446.183594 637.640625 445.421875 C 635.816406 444.664062 633.960938 443.992188 632.070312 443.410156 C 630.183594 442.832031 628.269531 442.347656 626.332031 441.953125 C 624.398438 441.5625 622.445312 441.265625 620.480469 441.0625 C 618.515625 440.859375 616.542969 440.757812 614.566406 440.746094 C 612.59375 440.738281 610.621094 440.828125 608.652344 441.011719 C 606.6875 441.195312 604.734375 441.476562 602.792969 441.851562 C 600.855469 442.226562 598.9375 442.699219 597.042969 443.261719 C 595.148438 443.824219 593.289062 444.480469 591.457031 445.226562 C 589.628906 445.96875 587.839844 446.804688 586.089844 447.722656 C 584.34375 448.644531 582.644531 449.648438 580.996094 450.738281 C 579.34375 451.824219 577.753906 452.988281 576.214844 454.234375 C 574.679688 455.476562 573.210938 456.789062 571.800781 458.179688 L 463.238281 561.40625 C 460.441406 564.234375 457.945312 567.300781 455.746094 570.617188 C 453.550781 573.929688 451.695312 577.425781 450.179688 581.101562 C 448.664062 584.777344 447.519531 588.566406 446.746094 592.464844 C 445.96875 596.367188 445.578125 600.304688 445.574219 604.28125 L 445.574219 789.941406 C 445.574219 790.605469 445.605469 791.265625 445.671875 791.925781 C 445.734375 792.585938 445.832031 793.242188 445.960938 793.890625 C 446.089844 794.542969 446.253906 795.183594 446.445312 795.820312 C 446.636719 796.453125 446.859375 797.078125 447.113281 797.6875 C 447.367188 798.300781 447.652344 798.898438 447.964844 799.484375 C 448.277344 800.070312 448.617188 800.636719 448.984375 801.1875 C 449.351562 801.738281 449.746094 802.269531 450.167969 802.785156 C 450.589844 803.296875 451.03125 803.785156 451.5 804.253906 C 451.96875 804.722656 452.460938 805.167969 452.972656 805.589844 C 453.484375 806.011719 454.019531 806.40625 454.570312 806.773438 C 455.121094 807.140625 455.6875 807.480469 456.273438 807.792969 C 456.859375 808.105469 457.457031 808.390625 458.070312 808.644531 C 458.679688 808.898438 459.304688 809.121094 459.9375 809.3125 C 460.574219 809.503906 461.214844 809.664062 461.867188 809.796875 C 462.515625 809.925781 463.171875 810.023438 463.832031 810.085938 C 464.488281 810.152344 465.152344 810.183594 465.8125 810.183594 C 466.476562 810.183594 467.136719 810.152344 467.796875 810.085938 C 468.457031 810.023438 469.113281 809.925781 469.761719 809.796875 C 470.414062 809.664062 471.054688 809.503906 471.691406 809.3125 C 472.324219 809.121094 472.949219 808.898438 473.558594 808.644531 C 474.171875 808.390625 474.769531 808.105469 475.355469 807.792969 C 475.941406 807.480469 476.507812 807.140625 477.058594 806.773438 C 477.609375 806.40625 478.140625 806.011719 478.65625 805.589844 C 479.167969 805.167969 479.65625 804.722656 480.125 804.253906 C 480.59375 803.785156 481.039062 803.296875 481.460938 802.785156 C 481.882812 802.269531 482.277344 801.738281 482.644531 801.1875 C 483.011719 800.636719 483.351562 800.070312 483.664062 799.484375 C 483.976562 798.898438 484.261719 798.300781 484.515625 797.6875 C 484.769531 797.078125 484.992188 796.453125 485.183594 795.820312 C 485.375 795.183594 485.535156 794.542969 485.667969 793.890625 C 485.796875 793.242188 485.894531 792.585938 485.957031 791.925781 C 486.023438 791.265625 486.054688 790.605469 486.054688 789.941406 L 486.054688 604.28125 C 486.070312 601.6875 486.554688 599.183594 487.507812 596.769531 C 488.460938 594.359375 489.816406 592.199219 491.574219 590.296875 L 599.957031 487.25 C 600.425781 486.78125 600.914062 486.332031 601.429688 485.910156 C 601.941406 485.484375 602.476562 485.089844 603.027344 484.71875 C 603.578125 484.347656 604.148438 484.003906 604.734375 483.6875 C 605.320312 483.375 605.921875 483.089844 606.535156 482.835938 C 607.152344 482.578125 607.777344 482.355469 608.414062 482.160156 C 609.046875 481.964844 609.691406 481.804688 610.34375 481.675781 C 610.996094 481.542969 611.65625 481.445312 612.316406 481.378906 C 612.980469 481.316406 613.644531 481.28125 614.308594 481.28125 C 614.972656 481.28125 615.636719 481.316406 616.300781 481.378906 C 616.960938 481.445312 617.617188 481.542969 618.269531 481.675781 C 618.921875 481.804688 619.566406 481.964844 620.203125 482.160156 C 620.839844 482.355469 621.464844 482.578125 622.082031 482.835938 C 622.695312 483.089844 623.292969 483.375 623.882812 483.6875 C 624.46875 484.003906 625.035156 484.347656 625.589844 484.71875 C 626.140625 485.089844 626.675781 485.484375 627.1875 485.910156 C 627.699219 486.332031 628.191406 486.78125 628.660156 487.25 C 629.125 487.707031 629.5625 488.1875 629.980469 488.6875 C 630.394531 489.1875 630.785156 489.707031 631.152344 490.246094 C 631.515625 490.785156 631.855469 491.339844 632.167969 491.910156 C 632.480469 492.480469 632.761719 493.066406 633.015625 493.664062 C 633.273438 494.265625 633.496094 494.875 633.691406 495.496094 C 633.886719 496.117188 634.050781 496.742188 634.1875 497.378906 C 634.320312 498.015625 634.421875 498.660156 634.496094 499.304688 C 634.566406 499.953125 634.605469 500.601562 634.613281 501.253906 C 634.625 501.902344 634.601562 502.550781 634.546875 503.199219 C 634.492188 503.847656 634.40625 504.492188 634.289062 505.132812 C 634.171875 505.773438 634.023438 506.40625 633.84375 507.03125 C 633.664062 507.65625 633.453125 508.273438 633.214844 508.878906 C 632.976562 509.484375 632.710938 510.074219 632.414062 510.65625 C 632.117188 511.234375 631.792969 511.796875 631.441406 512.34375 C 631.089844 512.894531 630.710938 513.421875 630.308594 513.933594 C 629.90625 514.445312 629.480469 514.933594 629.027344 515.40625 L 550.824219 589.375 C 550.34375 589.832031 549.886719 590.308594 549.449219 590.808594 C 549.015625 591.308594 548.605469 591.828125 548.222656 592.367188 C 547.835938 592.910156 547.480469 593.464844 547.152344 594.042969 C 546.820312 594.617188 546.519531 595.207031 546.25 595.8125 C 545.980469 596.417969 545.738281 597.035156 545.527344 597.664062 C 545.316406 598.289062 545.136719 598.929688 544.988281 599.574219 C 544.839844 600.21875 544.726562 600.871094 544.640625 601.53125 C 544.554688 602.1875 544.503906 602.847656 544.484375 603.511719 C 544.464844 604.171875 544.480469 604.835938 544.527344 605.496094 C 544.570312 606.15625 544.648438 606.816406 544.761719 607.46875 C 544.871094 608.121094 545.011719 608.769531 545.1875 609.410156 C 545.359375 610.046875 545.566406 610.679688 545.800781 611.296875 C 546.039062 611.917969 546.304688 612.523438 546.597656 613.117188 C 546.894531 613.710938 547.21875 614.289062 547.570312 614.847656 C 547.921875 615.410156 548.300781 615.953125 548.707031 616.480469 C 549.113281 617.003906 549.542969 617.507812 549.996094 617.988281 C 550.453125 618.46875 550.929688 618.929688 551.429688 619.363281 C 551.929688 619.800781 552.449219 620.210938 552.992188 620.59375 C 553.53125 620.976562 554.089844 621.335938 554.664062 621.664062 C 555.238281 621.992188 555.828125 622.292969 556.433594 622.5625 C 557.039062 622.835938 557.65625 623.078125 558.285156 623.289062 C 558.914062 623.496094 559.550781 623.675781 560.195312 623.824219 C 560.84375 623.972656 561.496094 624.089844 562.152344 624.171875 C 562.808594 624.257812 563.46875 624.308594 564.132812 624.328125 C 564.796875 624.347656 565.457031 624.335938 566.117188 624.289062 C 566.78125 624.242188 567.4375 624.164062 568.089844 624.054688 C 568.746094 623.945312 569.390625 623.800781 570.03125 623.628906 C 570.671875 623.453125 571.300781 623.25 571.921875 623.011719 C 572.539062 622.777344 573.144531 622.511719 573.738281 622.214844 C 574.332031 621.917969 574.910156 621.597656 575.472656 621.242188 C 576.035156 620.890625 576.578125 620.511719 577.101562 620.105469 C 577.625 619.703125 578.128906 619.269531 578.609375 618.816406 L 657.183594 544.476562 C 660.886719 540.613281 664.003906 536.320312 666.535156 531.605469 C 669.066406 526.886719 670.914062 521.917969 672.085938 516.691406 L 720.296875 482.652344 C 721.636719 481.726562 722.84375 480.652344 723.921875 479.433594 C 724.996094 478.214844 725.914062 476.882812 726.667969 475.4375 C 727.421875 473.996094 727.988281 472.484375 728.375 470.902344 C 728.761719 469.320312 728.949219 467.71875 728.945312 466.089844 L 728.945312 344.644531 C 728.945312 343.984375 728.976562 343.320312 729.042969 342.660156 C 729.105469 342 729.203125 341.347656 729.332031 340.695312 C 729.464844 340.046875 729.625 339.40625 729.816406 338.769531 C 730.007812 338.136719 730.230469 337.511719 730.484375 336.898438 C 730.738281 336.289062 731.023438 335.6875 731.335938 335.105469 C 731.648438 334.519531 731.988281 333.953125 732.355469 333.398438 C 732.722656 332.847656 733.117188 332.316406 733.539062 331.804688 C 733.960938 331.292969 734.40625 330.800781 734.871094 330.332031 C 735.34375 329.863281 735.832031 329.417969 736.34375 329 C 736.855469 328.578125 737.390625 328.183594 737.941406 327.816406 C 738.492188 327.449219 739.058594 327.105469 739.644531 326.792969 C 740.230469 326.480469 740.828125 326.199219 741.441406 325.945312 C 742.050781 325.691406 742.675781 325.46875 743.308594 325.277344 C 743.945312 325.082031 744.585938 324.921875 745.238281 324.792969 C 745.886719 324.664062 746.542969 324.566406 747.203125 324.503906 C 747.859375 324.4375 748.523438 324.40625 749.183594 324.40625 C 749.847656 324.40625 750.507812 324.4375 751.167969 324.503906 C 751.828125 324.566406 752.484375 324.664062 753.132812 324.792969 C 753.785156 324.921875 754.425781 325.082031 755.0625 325.277344 C 755.695312 325.46875 756.320312 325.691406 756.929688 325.945312 C 757.542969 326.199219 758.140625 326.480469 758.726562 326.792969 C 759.3125 327.105469 759.878906 327.449219 760.429688 327.816406 C 760.980469 328.183594 761.515625 328.578125 762.027344 329 C 762.539062 329.417969 763.027344 329.863281 763.496094 330.332031 C 763.964844 330.800781 764.410156 331.292969 764.832031 331.804688 C 765.253906 332.316406 765.648438 332.847656 766.015625 333.398438 C 766.382812 333.953125 766.722656 334.519531 767.035156 335.105469 C 767.347656 335.6875 767.632812 336.289062 767.886719 336.898438 C 768.140625 337.511719 768.363281 338.136719 768.554688 338.769531 C 768.746094 339.40625 768.90625 340.046875 769.039062 340.695312 C 769.167969 341.347656 769.265625 342 769.328125 342.660156 C 769.394531 343.320312 769.425781 343.984375 769.425781 344.644531 L 769.425781 528.101562 C 769.410156 529.660156 769.222656 531.199219 768.863281 532.714844 C 768.503906 534.230469 767.980469 535.691406 767.296875 537.089844 C 766.613281 538.492188 765.78125 539.796875 764.808594 541.015625 C 763.832031 542.230469 762.734375 543.324219 761.515625 544.292969 L 573.644531 714.132812 C 572.597656 715.089844 571.660156 716.148438 570.835938 717.300781 C 570.007812 718.453125 569.3125 719.679688 568.742188 720.980469 C 568.171875 722.277344 567.742188 723.621094 567.449219 725.011719 C 567.160156 726.398438 567.015625 727.800781 567.019531 729.222656 L 567.019531 789.941406 C 567.019531 790.605469 567.050781 791.265625 567.117188 791.925781 C 567.179688 792.585938 567.277344 793.242188 567.40625 793.890625 C 567.535156 794.542969 567.699219 795.183594 567.890625 795.820312 C 568.082031 796.453125 568.304688 797.078125 568.558594 797.6875 C 568.8125 798.300781 569.097656 798.898438 569.410156 799.484375 C 569.722656 800.070312 570.0625 800.636719 570.429688 801.1875 C 570.796875 801.738281 571.191406 802.269531 571.613281 802.785156 C 572.035156 803.296875 572.476562 803.785156 572.945312 804.253906 C 573.414062 804.722656 573.90625 805.167969 574.417969 805.589844 C 574.929688 806.011719 575.460938 806.40625 576.015625 806.773438 C 576.566406 807.140625 577.132812 807.480469 577.71875 807.792969 C 578.300781 808.105469 578.902344 808.390625 579.511719 808.644531 C 580.125 808.898438 580.75 809.121094 581.382812 809.3125 C 582.019531 809.503906 582.660156 809.664062 583.308594 809.796875 C 583.960938 809.925781 584.617188 810.023438 585.273438 810.085938 C 585.933594 810.152344 586.597656 810.183594 587.257812 810.183594 C 587.921875 810.183594 588.582031 810.152344 589.242188 810.085938 C 589.902344 810.023438 590.558594 809.925781 591.207031 809.796875 C 591.859375 809.664062 592.5 809.503906 593.132812 809.3125 C 593.769531 809.121094 594.390625 808.898438 595.003906 808.644531 C 595.617188 808.390625 596.214844 808.105469 596.800781 807.792969 C 597.386719 807.480469 597.953125 807.140625 598.503906 806.773438 C 599.054688 806.40625 599.585938 806.011719 600.101562 805.589844 C 600.613281 805.167969 601.101562 804.722656 601.570312 804.253906 C 602.039062 803.785156 602.484375 803.296875 602.90625 802.785156 C 603.324219 802.269531 603.71875 801.738281 604.089844 801.1875 C 604.457031 800.636719 604.796875 800.070312 605.109375 799.484375 C 605.421875 798.898438 605.707031 798.300781 605.960938 797.6875 C 606.210938 797.078125 606.4375 796.453125 606.628906 795.820312 C 606.820312 795.183594 606.980469 794.542969 607.109375 793.890625 C 607.242188 793.242188 607.335938 792.585938 607.402344 791.925781 C 607.46875 791.265625 607.5 790.605469 607.5 789.941406 L 607.5 738.238281 L 788.011719 574.839844 C 789.722656 573.417969 791.351562 571.910156 792.898438 570.3125 C 794.441406 568.710938 795.894531 567.03125 797.257812 565.273438 C 798.617188 563.515625 799.878906 561.6875 801.035156 559.789062 C 802.195312 557.890625 803.246094 555.933594 804.191406 553.921875 C 805.132812 551.90625 805.964844 549.847656 806.679688 547.742188 C 807.394531 545.636719 807.996094 543.496094 808.476562 541.328125 C 808.957031 539.15625 809.316406 536.964844 809.554688 534.753906 C 809.796875 532.542969 809.914062 530.324219 809.90625 528.101562 L 809.90625 344.644531 C 809.90625 342.65625 809.808594 340.671875 809.617188 338.695312 C 809.421875 336.714844 809.128906 334.75 808.742188 332.800781 C 808.351562 330.847656 807.871094 328.921875 807.292969 327.019531 C 806.714844 325.117188 806.046875 323.246094 805.285156 321.40625 C 804.523438 319.570312 803.675781 317.773438 802.738281 316.019531 C 801.800781 314.265625 800.777344 312.5625 799.675781 310.910156 C 798.570312 309.257812 797.386719 307.660156 796.125 306.125 C 794.863281 304.585938 793.527344 303.113281 792.121094 301.707031 C 790.714844 300.300781 789.246094 298.96875 787.707031 297.707031 C 786.171875 296.445312 784.574219 295.261719 782.921875 294.15625 C 781.265625 293.050781 779.5625 292.03125 777.808594 291.09375 C 776.054688 290.15625 774.261719 289.304688 772.421875 288.546875 C 770.585938 287.785156 768.714844 287.117188 766.8125 286.539062 C 764.910156 285.960938 762.980469 285.476562 761.03125 285.089844 C 759.082031 284.703125 757.117188 284.410156 755.136719 284.214844 C 753.15625 284.019531 751.175781 283.921875 749.183594 283.921875 Z M 749.183594 283.921875"/><path fill="#FFF" d="M 243.164062 364.886719 L 567.019531 364.886719 C 567.679688 364.886719 568.34375 364.855469 569.003906 364.789062 C 569.660156 364.722656 570.316406 364.625 570.96875 364.496094 C 571.617188 364.367188 572.257812 364.207031 572.894531 364.015625 C 573.527344 363.824219 574.152344 363.597656 574.765625 363.34375 C 575.375 363.09375 575.976562 362.808594 576.558594 362.496094 C 577.144531 362.183594 577.710938 361.84375 578.261719 361.476562 C 578.816406 361.105469 579.347656 360.710938 579.859375 360.292969 C 580.371094 359.871094 580.863281 359.425781 581.332031 358.957031 C 581.800781 358.488281 582.246094 358 582.664062 357.484375 C 583.085938 356.972656 583.480469 356.441406 583.847656 355.890625 C 584.214844 355.339844 584.554688 354.773438 584.867188 354.1875 C 585.179688 353.601562 585.464844 353.003906 585.71875 352.390625 C 585.972656 351.777344 586.195312 351.15625 586.386719 350.519531 C 586.578125 349.886719 586.742188 349.246094 586.871094 348.59375 C 587 347.945312 587.097656 347.289062 587.160156 346.628906 C 587.226562 345.96875 587.257812 345.308594 587.257812 344.644531 C 587.257812 281.347656 545.304688 228.351562 488.078125 210.136719 C 489.550781 208.757812 490.988281 207.347656 492.386719 205.898438 C 493.789062 204.449219 495.152344 202.964844 496.480469 201.449219 C 497.808594 199.933594 499.097656 198.382812 500.347656 196.804688 C 501.597656 195.222656 502.808594 193.609375 503.976562 191.96875 C 505.148438 190.328125 506.277344 188.660156 507.363281 186.960938 C 508.449219 185.265625 509.492188 183.542969 510.496094 181.792969 C 511.496094 180.042969 512.453125 178.269531 513.367188 176.472656 C 514.277344 174.675781 515.148438 172.859375 515.96875 171.019531 C 516.792969 169.179688 517.566406 167.320312 518.296875 165.441406 C 519.027344 163.5625 519.710938 161.664062 520.34375 159.753906 C 520.980469 157.839844 521.566406 155.914062 522.105469 153.972656 C 522.644531 152.03125 523.136719 150.074219 523.578125 148.109375 C 524.019531 146.140625 524.414062 144.167969 524.757812 142.179688 C 525.101562 140.195312 525.394531 138.203125 525.640625 136.199219 C 525.882812 134.199219 526.078125 132.195312 526.222656 130.183594 C 526.367188 128.175781 526.460938 126.160156 526.507812 124.148438 C 526.550781 122.132812 526.546875 120.117188 526.488281 118.101562 C 526.433594 116.085938 526.328125 114.074219 526.171875 112.066406 C 526.015625 110.058594 525.808594 108.050781 525.554688 106.054688 C 525.296875 104.054688 524.992188 102.0625 524.636719 100.078125 C 524.285156 98.09375 523.878906 96.121094 523.425781 94.15625 C 522.972656 92.191406 522.472656 90.242188 521.921875 88.304688 C 521.371094 86.363281 520.773438 84.441406 520.125 82.53125 C 519.480469 80.621094 518.785156 78.730469 518.046875 76.855469 C 517.304688 74.980469 516.519531 73.125 515.6875 71.289062 C 514.851562 69.457031 513.976562 67.640625 513.050781 65.851562 C 512.128906 64.058594 511.164062 62.292969 510.152344 60.546875 C 509.140625 58.804688 508.085938 57.085938 506.988281 55.394531 C 505.894531 53.703125 504.753906 52.042969 503.578125 50.40625 C 502.398438 48.773438 501.175781 47.167969 499.917969 45.59375 C 498.660156 44.023438 497.363281 42.480469 496.027344 40.972656 C 494.691406 39.460938 493.316406 37.988281 491.90625 36.546875 C 490.5 35.105469 489.054688 33.699219 487.574219 32.332031 C 486.097656 30.964844 484.582031 29.632812 483.039062 28.339844 C 481.492188 27.042969 479.914062 25.789062 478.308594 24.574219 C 476.699219 23.359375 475.0625 22.1875 473.394531 21.050781 C 471.730469 19.917969 470.035156 18.828125 468.316406 17.777344 C 466.59375 16.730469 464.847656 15.722656 463.078125 14.761719 C 461.304688 13.796875 459.511719 12.882812 457.695312 12.007812 C 455.878906 11.136719 454.042969 10.308594 452.183594 9.527344 C 450.328125 8.746094 448.449219 8.011719 446.558594 7.320312 C 444.664062 6.632812 442.753906 5.992188 440.824219 5.398438 C 438.898438 4.808594 436.960938 4.261719 435.007812 3.765625 C 433.054688 3.269531 431.089844 2.820312 429.113281 2.421875 C 427.136719 2.023438 425.152344 1.675781 423.160156 1.375 C 421.167969 1.074219 419.167969 0.824219 417.164062 0.625 C 415.15625 0.425781 413.148438 0.273438 411.132812 0.175781 C 409.121094 0.0742188 407.109375 0.0234375 405.09375 0.0234375 C 403.078125 0.0234375 401.0625 0.0742188 399.050781 0.175781 C 397.035156 0.273438 395.027344 0.425781 393.023438 0.625 C 391.015625 0.824219 389.015625 1.074219 387.023438 1.375 C 385.03125 1.675781 383.046875 2.023438 381.070312 2.421875 C 379.09375 2.820312 377.132812 3.269531 375.175781 3.765625 C 373.222656 4.261719 371.285156 4.808594 369.359375 5.398438 C 367.433594 5.992188 365.523438 6.632812 363.628906 7.320312 C 361.734375 8.011719 359.855469 8.746094 358 9.527344 C 356.140625 10.308594 354.304688 11.136719 352.488281 12.007812 C 350.671875 12.882812 348.878906 13.796875 347.105469 14.761719 C 345.335938 15.722656 343.589844 16.730469 341.867188 17.777344 C 340.148438 18.828125 338.453125 19.917969 336.789062 21.050781 C 335.121094 22.1875 333.484375 23.359375 331.875 24.574219 C 330.269531 25.789062 328.691406 27.042969 327.144531 28.339844 C 325.601562 29.632812 324.089844 30.964844 322.609375 32.332031 C 321.128906 33.699219 319.683594 35.105469 318.277344 36.546875 C 316.867188 37.988281 315.492188 39.460938 314.15625 40.972656 C 312.820312 42.480469 311.523438 44.023438 310.265625 45.59375 C 309.007812 47.167969 307.785156 48.773438 306.609375 50.40625 C 305.429688 52.042969 304.289062 53.703125 303.195312 55.394531 C 302.097656 57.085938 301.042969 58.804688 300.03125 60.546875 C 299.023438 62.292969 298.054688 64.058594 297.132812 65.851562 C 296.207031 67.640625 295.332031 69.457031 294.496094 71.289062 C 293.664062 73.125 292.878906 74.980469 292.136719 76.855469 C 291.398438 78.730469 290.703125 80.621094 290.058594 82.53125 C 289.414062 84.441406 288.8125 86.363281 288.261719 88.304688 C 287.714844 90.242188 287.210938 92.191406 286.757812 94.15625 C 286.304688 96.121094 285.902344 98.09375 285.546875 100.078125 C 285.191406 102.0625 284.886719 104.054688 284.628906 106.054688 C 284.375 108.050781 284.167969 110.058594 284.011719 112.066406 C 283.855469 114.074219 283.75 116.085938 283.695312 118.101562 C 283.636719 120.117188 283.632812 122.132812 283.675781 124.148438 C 283.722656 126.160156 283.816406 128.175781 283.960938 130.183594 C 284.105469 132.195312 284.300781 134.199219 284.542969 136.199219 C 284.789062 138.203125 285.082031 140.195312 285.425781 142.179688 C 285.769531 144.167969 286.164062 146.144531 286.605469 148.109375 C 287.046875 150.074219 287.539062 152.03125 288.078125 153.972656 C 288.617188 155.914062 289.203125 157.839844 289.839844 159.753906 C 290.476562 161.664062 291.15625 163.5625 291.886719 165.441406 C 292.617188 167.320312 293.394531 169.179688 294.214844 171.019531 C 295.039062 172.859375 295.90625 174.675781 296.816406 176.472656 C 297.730469 178.269531 298.6875 180.042969 299.6875 181.792969 C 300.691406 183.542969 301.734375 185.265625 302.820312 186.960938 C 303.90625 188.660156 305.035156 190.328125 306.207031 191.96875 C 307.375 193.609375 308.585938 195.222656 309.835938 196.804688 C 311.085938 198.382812 312.375 199.933594 313.703125 201.449219 C 315.03125 202.964844 316.394531 204.449219 317.796875 205.898438 C 319.195312 207.347656 320.632812 208.757812 322.105469 210.136719 C 264.878906 228.351562 222.925781 281.347656 222.925781 344.644531 C 222.925781 345.308594 222.957031 345.96875 223.023438 346.628906 C 223.085938 347.289062 223.183594 347.945312 223.3125 348.59375 C 223.441406 349.246094 223.605469 349.886719 223.796875 350.519531 C 223.988281 351.15625 224.210938 351.777344 224.464844 352.390625 C 224.71875 353.003906 225.003906 353.601562 225.316406 354.1875 C 225.628906 354.773438 225.96875 355.339844 226.335938 355.890625 C 226.703125 356.441406 227.097656 356.972656 227.519531 357.484375 C 227.941406 358 228.382812 358.488281 228.851562 358.957031 C 229.320312 359.425781 229.8125 359.871094 230.324219 360.292969 C 230.835938 360.710938 231.371094 361.105469 231.921875 361.476562 C 232.472656 361.84375 233.039062 362.183594 233.625 362.496094 C 234.207031 362.808594 234.808594 363.09375 235.417969 363.34375 C 236.03125 363.597656 236.65625 363.824219 237.289062 364.015625 C 237.925781 364.207031 238.566406 364.367188 239.214844 364.496094 C 239.867188 364.625 240.523438 364.722656 241.183594 364.789062 C 241.839844 364.855469 242.503906 364.886719 243.164062 364.886719 Z M 405.09375 41.035156 C 406.417969 41.035156 407.742188 41.066406 409.066406 41.132812 C 410.386719 41.195312 411.710938 41.292969 413.027344 41.421875 C 414.347656 41.554688 415.660156 41.714844 416.972656 41.910156 C 418.28125 42.105469 419.585938 42.332031 420.886719 42.589844 C 422.1875 42.847656 423.480469 43.136719 424.765625 43.460938 C 426.050781 43.78125 427.328125 44.136719 428.59375 44.519531 C 429.863281 44.90625 431.121094 45.320312 432.367188 45.765625 C 433.613281 46.210938 434.851562 46.691406 436.074219 47.195312 C 437.300781 47.703125 438.511719 48.242188 439.707031 48.808594 C 440.90625 49.375 442.089844 49.96875 443.257812 50.59375 C 444.425781 51.21875 445.578125 51.871094 446.714844 52.550781 C 447.851562 53.234375 448.972656 53.941406 450.074219 54.679688 C 451.175781 55.414062 452.257812 56.175781 453.320312 56.964844 C 454.386719 57.757812 455.429688 58.570312 456.453125 59.410156 C 457.480469 60.253906 458.480469 61.117188 459.464844 62.007812 C 460.445312 62.898438 461.40625 63.808594 462.339844 64.746094 C 463.277344 65.683594 464.191406 66.644531 465.082031 67.625 C 465.972656 68.605469 466.835938 69.609375 467.675781 70.632812 C 468.519531 71.660156 469.332031 72.703125 470.121094 73.765625 C 470.910156 74.832031 471.675781 75.914062 472.410156 77.015625 C 473.144531 78.117188 473.855469 79.238281 474.535156 80.375 C 475.21875 81.511719 475.871094 82.664062 476.496094 83.832031 C 477.121094 85 477.714844 86.183594 478.28125 87.378906 C 478.847656 88.578125 479.386719 89.789062 479.890625 91.011719 C 480.398438 92.238281 480.875 93.472656 481.324219 94.722656 C 481.769531 95.96875 482.183594 97.226562 482.570312 98.496094 C 482.953125 99.761719 483.308594 101.039062 483.628906 102.324219 C 483.949219 103.609375 484.242188 104.902344 484.5 106.203125 C 484.757812 107.5 484.984375 108.804688 485.179688 110.117188 C 485.375 111.425781 485.535156 112.742188 485.664062 114.0625 C 485.796875 115.378906 485.894531 116.699219 485.957031 118.023438 C 486.023438 119.347656 486.054688 120.671875 486.054688 121.996094 C 486.054688 123.320312 486.023438 124.644531 485.957031 125.96875 C 485.894531 127.292969 485.796875 128.613281 485.664062 129.933594 C 485.535156 131.25 485.375 132.566406 485.179688 133.875 C 484.984375 135.1875 484.757812 136.492188 484.5 137.792969 C 484.242188 139.089844 483.949219 140.382812 483.628906 141.667969 C 483.308594 142.953125 482.953125 144.230469 482.570312 145.5 C 482.183594 146.765625 481.769531 148.023438 481.324219 149.273438 C 480.875 150.519531 480.398438 151.757812 479.890625 152.980469 C 479.386719 154.203125 478.847656 155.414062 478.28125 156.613281 C 477.714844 157.8125 477.121094 158.992188 476.496094 160.164062 C 475.871094 161.332031 475.21875 162.484375 474.535156 163.621094 C 473.855469 164.757812 473.144531 165.875 472.410156 166.976562 C 471.675781 168.078125 470.910156 169.164062 470.121094 170.226562 C 469.332031 171.289062 468.519531 172.335938 467.675781 173.359375 C 466.835938 174.382812 465.972656 175.386719 465.082031 176.367188 C 464.191406 177.351562 463.277344 178.308594 462.339844 179.246094 C 461.40625 180.183594 460.445312 181.097656 459.464844 181.988281 C 458.480469 182.875 457.480469 183.742188 456.453125 184.582031 C 455.429688 185.421875 454.386719 186.238281 453.320312 187.027344 C 452.257812 187.816406 451.175781 188.578125 450.074219 189.316406 C 448.972656 190.050781 447.851562 190.761719 446.714844 191.441406 C 445.578125 192.121094 444.425781 192.773438 443.257812 193.398438 C 442.089844 194.023438 440.90625 194.621094 439.707031 195.1875 C 438.511719 195.753906 437.300781 196.289062 436.074219 196.796875 C 434.851562 197.304688 433.613281 197.78125 432.367188 198.226562 C 431.121094 198.671875 429.863281 199.089844 428.59375 199.472656 C 427.328125 199.859375 426.050781 200.210938 424.765625 200.535156 C 423.480469 200.855469 422.1875 201.144531 420.886719 201.40625 C 419.585938 201.664062 418.28125 201.890625 416.972656 202.082031 C 415.660156 202.277344 414.347656 202.441406 413.027344 202.570312 C 411.710938 202.699219 410.386719 202.796875 409.066406 202.863281 C 407.742188 202.925781 406.417969 202.960938 405.09375 202.960938 C 403.765625 202.960938 402.441406 202.925781 401.121094 202.863281 C 399.796875 202.796875 398.476562 202.699219 397.15625 202.570312 C 395.835938 202.441406 394.523438 202.277344 393.210938 202.082031 C 391.902344 201.890625 390.597656 201.664062 389.296875 201.40625 C 387.996094 201.144531 386.703125 200.855469 385.417969 200.535156 C 384.132812 200.210938 382.859375 199.859375 381.589844 199.472656 C 380.320312 199.089844 379.0625 198.671875 377.816406 198.226562 C 376.570312 197.78125 375.332031 197.304688 374.109375 196.796875 C 372.882812 196.289062 371.671875 195.753906 370.476562 195.1875 C 369.277344 194.621094 368.09375 194.023438 366.925781 193.398438 C 365.757812 192.773438 364.605469 192.121094 363.46875 191.441406 C 362.332031 190.761719 361.210938 190.050781 360.109375 189.316406 C 359.007812 188.578125 357.925781 187.816406 356.863281 187.027344 C 355.796875 186.238281 354.753906 185.421875 353.730469 184.582031 C 352.707031 183.742188 351.703125 182.875 350.71875 181.988281 C 349.738281 181.097656 348.777344 180.183594 347.84375 179.246094 C 346.90625 178.308594 345.992188 177.351562 345.101562 176.367188 C 344.210938 175.386719 343.347656 174.382812 342.507812 173.359375 C 341.664062 172.335938 340.851562 171.289062 340.0625 170.226562 C 339.273438 169.164062 338.507812 168.078125 337.773438 166.976562 C 337.039062 165.875 336.328125 164.757812 335.648438 163.621094 C 334.964844 162.484375 334.3125 161.332031 333.6875 160.164062 C 333.0625 158.992188 332.46875 157.8125 331.902344 156.613281 C 331.335938 155.414062 330.796875 154.203125 330.292969 152.980469 C 329.785156 151.757812 329.308594 150.519531 328.863281 149.273438 C 328.414062 148.023438 328 146.765625 327.613281 145.5 C 327.230469 144.230469 326.878906 142.953125 326.554688 141.667969 C 326.234375 140.382812 325.941406 139.089844 325.683594 137.792969 C 325.425781 136.492188 325.199219 135.1875 325.003906 133.875 C 324.8125 132.566406 324.648438 131.25 324.519531 129.933594 C 324.390625 128.613281 324.292969 127.292969 324.226562 125.96875 C 324.160156 124.644531 324.128906 123.320312 324.128906 121.996094 C 324.128906 120.671875 324.160156 119.347656 324.226562 118.023438 C 324.292969 116.699219 324.390625 115.378906 324.519531 114.0625 C 324.648438 112.742188 324.8125 111.425781 325.003906 110.117188 C 325.199219 108.804688 325.425781 107.5 325.683594 106.203125 C 325.941406 104.902344 326.234375 103.609375 326.554688 102.324219 C 326.878906 101.039062 327.230469 99.761719 327.613281 98.496094 C 328 97.226562 328.414062 95.96875 328.863281 94.722656 C 329.308594 93.472656 329.785156 92.238281 330.292969 91.011719 C 330.796875 89.789062 331.335938 88.578125 331.902344 87.378906 C 332.46875 86.183594 333.0625 85 333.6875 83.832031 C 334.3125 82.664062 334.964844 81.511719 335.648438 80.375 C 336.328125 79.238281 337.039062 78.117188 337.773438 77.015625 C 338.507812 75.914062 339.273438 74.832031 340.0625 73.765625 C 340.851562 72.703125 341.664062 71.660156 342.507812 70.632812 C 343.347656 69.609375 344.210938 68.605469 345.101562 67.625 C 345.992188 66.644531 346.90625 65.683594 347.84375 64.746094 C 348.777344 63.808594 349.738281 62.898438 350.71875 62.007812 C 351.703125 61.117188 352.707031 60.253906 353.730469 59.410156 C 354.753906 58.570312 355.796875 57.757812 356.863281 56.964844 C 357.925781 56.175781 359.007812 55.414062 360.109375 54.679688 C 361.214844 53.941406 362.332031 53.234375 363.46875 52.550781 C 364.605469 51.871094 365.757812 51.21875 366.925781 50.59375 C 368.09375 49.96875 369.277344 49.375 370.476562 48.808594 C 371.671875 48.242188 372.882812 47.703125 374.109375 47.195312 C 375.332031 46.691406 376.570312 46.210938 377.816406 45.765625 C 379.0625 45.320312 380.320312 44.90625 381.589844 44.519531 C 382.859375 44.136719 384.132812 43.78125 385.417969 43.460938 C 386.703125 43.136719 387.996094 42.847656 389.296875 42.589844 C 390.597656 42.332031 391.902344 42.105469 393.210938 41.910156 C 394.523438 41.714844 395.835938 41.554688 397.15625 41.421875 C 398.476562 41.292969 399.796875 41.195312 401.121094 41.132812 C 402.441406 41.066406 403.765625 41.035156 405.09375 41.035156 Z M 364.609375 243.441406 L 445.574219 243.441406 C 448.464844 243.441406 451.347656 243.5625 454.226562 243.808594 C 457.105469 244.058594 459.96875 244.425781 462.816406 244.917969 C 465.664062 245.410156 468.484375 246.023438 471.28125 246.753906 C 474.074219 247.488281 476.832031 248.339844 479.554688 249.308594 C 482.277344 250.28125 484.953125 251.363281 487.582031 252.5625 C 490.210938 253.761719 492.785156 255.070312 495.300781 256.488281 C 497.816406 257.910156 500.269531 259.433594 502.65625 261.0625 C 505.042969 262.691406 507.355469 264.417969 509.59375 266.246094 C 511.832031 268.074219 513.988281 269.992188 516.0625 272.003906 C 518.136719 274.019531 520.121094 276.113281 522.015625 278.296875 C 523.910156 280.476562 525.707031 282.738281 527.40625 285.074219 C 529.109375 287.410156 530.707031 289.8125 532.199219 292.285156 C 533.695312 294.757812 535.082031 297.292969 536.359375 299.882812 C 537.636719 302.472656 538.804688 305.117188 539.855469 307.808594 C 540.90625 310.5 541.84375 313.230469 542.660156 316 C 543.476562 318.773438 544.175781 321.574219 544.753906 324.40625 L 265.429688 324.40625 C 266.007812 321.574219 266.703125 318.773438 267.523438 316.003906 C 268.339844 313.230469 269.273438 310.5 270.324219 307.808594 C 271.375 305.121094 272.539062 302.476562 273.816406 299.886719 C 275.09375 297.296875 276.480469 294.765625 277.976562 292.292969 C 279.472656 289.820312 281.070312 287.414062 282.769531 285.078125 C 284.46875 282.742188 286.265625 280.484375 288.160156 278.304688 C 290.054688 276.121094 292.039062 274.023438 294.113281 272.011719 C 296.1875 270 298.34375 268.082031 300.582031 266.253906 C 302.820312 264.425781 305.132812 262.699219 307.519531 261.070312 C 309.90625 259.441406 312.359375 257.914062 314.875 256.496094 C 317.390625 255.078125 319.964844 253.769531 322.59375 252.570312 C 325.222656 251.371094 327.898438 250.285156 330.621094 249.316406 C 333.34375 248.34375 336.105469 247.492188 338.898438 246.757812 C 341.695312 246.027344 344.515625 245.414062 347.363281 244.921875 C 350.210938 244.429688 353.074219 244.058594 355.957031 243.8125 C 358.835938 243.566406 361.71875 243.441406 364.609375 243.441406 Z M 364.609375 243.441406"/></svg>