<svg xmlns="http://www.w3.org/2000/svg" width="810" viewBox="0 0 810 810" height="810" version="1.0"><defs><clipPath id="a"><path d="M 5 261 L 524 261 L 524 797.003906 L 5 797.003906 Z M 5 261"/></clipPath><clipPath id="b"><path d="M 404 13.253906 L 433 13.253906 L 433 108 L 404 108 Z M 404 13.253906"/></clipPath></defs><g clip-path="url(#a)"><path fill="#FFF" d="M 498.042969 736.179688 L 498.179688 736.179688 Z M 94.722656 290.429688 C 90.039062 290.429688 85.613281 292.539062 80.867188 296.691406 C 80.117188 297.394531 71.339844 305.730469 66.683594 310.167969 L 63.734375 312.957031 C 39.292969 335.816406 28.238281 377.011719 35.546875 417.945312 C 37.925781 431.261719 41.746094 445.058594 46.921875 458.953125 C 73.089844 529.273438 122.835938 590.476562 159.976562 629.441406 C 196.925781 668.664062 255.363281 721.632812 324.164062 751.554688 C 337.75 757.460938 351.320312 762.011719 364.496094 765.105469 C 404.960938 774.589844 446.683594 765.773438 470.765625 742.605469 L 473.996094 739.535156 C 478.617188 735.15625 486.851562 727.378906 488.074219 726.195312 C 502.199219 711.632812 494.679688 699.09375 465.0625 668.945312 L 457.382812 661.054688 C 438.203125 641.167969 406.121094 607.703125 379.445312 611.007812 C 372.445312 611.832031 364.816406 617.160156 356.742188 622.796875 C 348.804688 628.34375 339.808594 634.632812 329.332031 637.949219 C 301.375 646.777344 272.988281 640.980469 249.460938 621.585938 C 235.628906 610.179688 221.554688 596.839844 208.761719 583.019531 C 195.867188 569.726562 183.308594 554.957031 172.65625 540.542969 C 154.550781 515.980469 150.261719 487.324219 160.605469 459.855469 C 164.472656 449.582031 171.226562 440.929688 177.195312 433.296875 C 183.246094 425.527344 188.964844 418.203125 190.171875 411.25 C 194.746094 384.777344 163.203125 350.917969 144.359375 330.699219 L 136.914062 322.636719 C 117.15625 300.996094 105.261719 290.429688 94.722656 290.429688 Z M 397.207031 797.054688 C 383.316406 797.054688 369.957031 795.378906 358.050781 792.589844 C 343.246094 789.113281 328.046875 784.019531 312.914062 777.4375 C 239.722656 745.613281 178.203125 689.957031 139.503906 648.859375 C 100.601562 608.046875 48.328125 543.613281 20.484375 468.804688 C 14.730469 453.320312 10.441406 437.882812 7.777344 422.902344 C 0.652344 383.027344 6.542969 327.789062 44.445312 292.378906 L 47.246094 289.703125 C 52.296875 284.90625 61.949219 275.746094 62.320312 275.421875 C 100.960938 241.46875 135.140625 278.851562 157.742188 303.585938 L 165.003906 311.453125 C 187.410156 335.519531 224.945312 375.777344 217.980469 416.058594 C 215.5625 430.003906 206.984375 440.976562 199.429688 450.667969 C 194.253906 457.300781 189.359375 463.554688 187.003906 469.816406 C 180.054688 488.273438 182.949219 506.941406 195.363281 523.773438 C 205.273438 537.1875 216.980469 550.972656 229.234375 563.609375 C 241.410156 576.753906 254.539062 589.195312 267.40625 599.800781 C 283.550781 613.105469 302.042969 616.988281 320.824219 611.042969 C 327.183594 609.023438 333.707031 604.472656 340.597656 599.652344 C 350.679688 592.609375 362.09375 584.644531 376.128906 582.980469 C 416.71875 578.183594 454.878906 617.800781 477.695312 641.460938 L 485.1875 649.15625 C 508.667969 673.0625 544.15625 709.179688 508.140625 746.046875 C 508.125 746.058594 508.113281 746.070312 508.101562 746.082031 C 507.769531 746.414062 498.476562 755.230469 493.398438 760.039062 L 490.277344 762.988281 C 464.210938 788.054688 429.304688 797.054688 397.207031 797.054688"/></g><g clip-path="url(#b)"><path fill="#FFF" d="M 418.382812 107.996094 C 410.59375 107.996094 404.28125 101.683594 404.28125 93.878906 L 404.28125 27.445312 C 404.28125 19.652344 410.59375 13.339844 418.382812 13.339844 C 426.171875 13.339844 432.496094 19.652344 432.496094 27.445312 L 432.496094 93.878906 C 432.496094 101.683594 426.171875 107.996094 418.382812 107.996094"/></g><path fill="#FFF" d="M 359.664062 119.265625 C 353.144531 119.265625 347.289062 114.726562 345.882812 108.09375 L 332.066406 43.101562 C 330.453125 35.484375 335.308594 27.988281 342.925781 26.371094 C 350.542969 24.71875 358.050781 29.613281 359.664062 37.234375 L 373.480469 102.226562 C 375.09375 109.84375 370.226562 117.339844 362.609375 118.957031 C 361.625 119.167969 360.636719 119.265625 359.664062 119.265625"/><path fill="#FFF" d="M 304.605469 142.519531 C 299.207031 142.519531 294.042969 139.386719 291.710938 134.136719 L 264.683594 73.445312 C 261.527344 66.332031 264.71875 57.984375 271.84375 54.816406 C 278.980469 51.660156 287.300781 54.851562 290.46875 61.96875 L 317.484375 122.65625 C 320.652344 129.769531 317.449219 138.117188 310.324219 141.285156 C 308.460938 142.113281 306.515625 142.519531 304.605469 142.519531"/><path fill="#FFF" d="M 255.5625 176.699219 C 251.183594 176.699219 246.894531 174.6875 244.136719 170.890625 L 205.085938 117.132812 C 200.503906 110.820312 201.90625 102.003906 208.207031 97.417969 C 214.527344 92.828125 223.328125 94.246094 227.914062 100.535156 L 266.949219 154.292969 C 271.535156 160.59375 270.140625 169.421875 263.832031 174.011719 C 261.328125 175.824219 258.421875 176.699219 255.5625 176.699219"/><path fill="#FFF" d="M 214.664062 220.347656 C 211.300781 220.347656 207.921875 219.148438 205.234375 216.722656 L 155.871094 172.257812 C 150.078125 167.042969 149.621094 158.128906 154.824219 152.332031 C 160.035156 146.550781 168.960938 146.082031 174.753906 151.285156 L 224.105469 195.746094 C 229.898438 200.964844 230.367188 209.878906 225.152344 215.671875 C 222.367188 218.765625 218.523438 220.347656 214.664062 220.347656"/><path fill="#FFF" d="M 607.742188 704.246094 C 602.34375 704.246094 597.191406 701.128906 594.851562 695.875 L 567.832031 635.175781 C 564.664062 628.058594 567.871094 619.710938 574.980469 616.542969 C 582.117188 613.386719 590.4375 616.582031 593.605469 623.695312 L 620.625 684.382812 C 623.789062 691.507812 620.585938 699.855469 613.472656 703.027344 C 611.601562 703.851562 609.652344 704.246094 607.742188 704.246094"/><path fill="#FFF" d="M 668.816406 663.113281 C 664.453125 663.113281 660.152344 661.089844 657.390625 657.292969 L 618.355469 603.546875 C 613.769531 597.234375 615.175781 588.40625 621.472656 583.832031 C 627.796875 579.246094 636.609375 580.664062 641.183594 586.953125 L 680.21875 640.699219 C 684.804688 647.011719 683.398438 655.828125 677.101562 660.414062 C 674.597656 662.238281 671.6875 663.113281 668.816406 663.113281"/><path fill="#FFF" d="M 719.992188 610.167969 C 716.628906 610.167969 713.25 608.972656 710.5625 606.542969 L 661.199219 562.082031 C 655.417969 556.878906 654.9375 547.953125 660.164062 542.15625 C 665.367188 536.386719 674.300781 535.90625 680.082031 541.109375 L 729.433594 585.570312 C 735.226562 590.785156 735.695312 599.714844 730.480469 605.496094 C 727.695312 608.589844 723.851562 610.167969 719.992188 610.167969"/><path fill="#FFF" d="M 759.054688 547.742188 C 756.660156 547.742188 754.246094 547.136719 752.015625 545.855469 L 694.492188 512.640625 C 687.75 508.730469 685.445312 500.113281 689.339844 493.355469 C 693.222656 486.597656 701.824219 484.292969 708.605469 488.1875 L 766.117188 521.40625 C 772.871094 525.300781 775.175781 533.933594 771.28125 540.691406 C 768.667969 545.214844 763.933594 547.742188 759.054688 547.742188"/><path fill="#FFF" d="M 784.308594 478.558594 C 782.867188 478.558594 781.398438 478.335938 779.945312 477.867188 L 716.789062 457.328125 C 709.367188 454.921875 705.324219 446.957031 707.730469 439.546875 C 710.121094 432.148438 718.09375 428.09375 725.503906 430.484375 L 788.671875 451.027344 C 796.09375 453.429688 800.132812 461.394531 797.730469 468.804688 C 795.796875 474.761719 790.261719 478.558594 784.308594 478.558594"/><path fill="#FFF" d="M 794.636719 405.628906 C 794.144531 405.628906 793.640625 405.589844 793.144531 405.542969 L 727.09375 398.601562 C 719.339844 397.785156 713.71875 390.84375 714.53125 383.089844 C 715.347656 375.332031 722.285156 369.773438 730.039062 370.535156 L 796.09375 377.476562 C 803.84375 378.292969 809.464844 385.234375 808.652344 392.988281 C 807.886719 400.238281 801.761719 405.628906 794.636719 405.628906"/><path fill="#FFF" d="M 723.480469 339.09375 C 716.355469 339.09375 710.230469 333.707031 709.46875 326.457031 C 708.652344 318.703125 714.273438 311.761719 722.027344 310.945312 L 788.082031 303.992188 C 795.871094 303.226562 802.761719 308.8125 803.585938 316.554688 C 804.386719 324.3125 798.765625 331.253906 791.027344 332.066406 L 724.972656 339.007812 C 724.46875 339.058594 723.972656 339.09375 723.480469 339.09375"/><path fill="#FFF" d="M 706.152344 281.871094 C 700.199219 281.871094 694.675781 278.074219 692.730469 272.121094 C 690.324219 264.695312 694.367188 256.742188 701.789062 254.328125 L 764.945312 233.796875 C 772.378906 231.40625 780.316406 235.460938 782.730469 242.859375 C 785.132812 250.269531 781.078125 258.234375 773.671875 260.640625 L 710.503906 281.167969 C 709.058594 281.648438 707.582031 281.871094 706.152344 281.871094"/><path fill="#FFF" d="M 677.296875 229.480469 C 672.414062 229.480469 667.683594 226.953125 665.058594 222.429688 C 661.175781 215.671875 663.480469 207.054688 670.234375 203.144531 L 727.746094 169.941406 C 734.488281 166.03125 743.117188 168.363281 747.023438 175.105469 C 750.90625 181.851562 748.601562 190.484375 741.847656 194.378906 L 684.335938 227.597656 C 682.117188 228.878906 679.6875 229.480469 677.296875 229.480469"/><path fill="#FFF" d="M 638.175781 184.269531 C 634.304688 184.269531 630.460938 182.691406 627.6875 179.59375 C 622.472656 173.800781 622.941406 164.886719 628.734375 159.671875 L 678.085938 115.207031 C 683.878906 109.992188 692.789062 110.449219 698.003906 116.257812 C 703.21875 122.039062 702.75 130.964844 696.957031 136.183594 L 647.605469 180.644531 C 644.90625 183.058594 641.527344 184.269531 638.175781 184.269531"/><path fill="#FFF" d="M 590.488281 148.152344 C 587.613281 148.152344 584.71875 147.277344 582.214844 145.464844 C 575.90625 140.878906 574.511719 132.0625 579.085938 125.75 L 618.121094 72.003906 C 622.707031 65.714844 631.519531 64.296875 637.828125 68.886719 C 644.140625 73.460938 645.535156 82.289062 640.960938 88.601562 L 601.914062 142.347656 C 599.152344 146.144531 594.863281 148.152344 590.488281 148.152344"/><path fill="#FFF" d="M 536.378906 122.765625 C 534.453125 122.765625 532.507812 122.371094 530.644531 121.546875 C 523.535156 118.378906 520.316406 110.03125 523.496094 102.914062 L 550.503906 42.214844 C 553.683594 35.089844 562.015625 31.90625 569.140625 35.0625 C 576.25 38.234375 579.457031 46.578125 576.277344 53.695312 L 549.269531 114.382812 C 546.929688 119.648438 541.777344 122.765625 536.378906 122.765625"/><path fill="#FFF" d="M 478.175781 109.179688 C 477.203125 109.179688 476.214844 109.082031 475.230469 108.859375 C 467.613281 107.242188 462.742188 99.757812 464.371094 92.125 L 478.164062 27.148438 C 479.789062 19.515625 487.285156 14.621094 494.902344 16.273438 C 502.519531 17.902344 507.375 25.386719 505.761719 33.015625 L 491.957031 97.996094 C 490.550781 104.628906 484.683594 109.179688 478.175781 109.179688"/><path fill="#FFF" d="M 271.953125 449.855469 C 271.890625 445.75 271.820312 442.296875 271.757812 439.484375 C 271.695312 436.675781 271.65625 433.679688 271.65625 430.507812 C 271.65625 427.328125 271.695312 423.097656 271.757812 417.808594 C 272.089844 406.886719 274.738281 397.664062 279.695312 390.128906 C 284.660156 382.59375 291.957031 376.207031 301.609375 370.980469 L 314.796875 363.839844 C 319.433594 361.328125 322.390625 358.292969 323.683594 354.753906 C 324.96875 351.214844 325.707031 347.898438 325.914062 344.792969 C 326.175781 341.214844 326.324219 337.34375 326.359375 333.175781 C 326.382812 329.007812 326.308594 325.113281 326.101562 321.476562 C 325.644531 314.324219 320.851562 310.761719 311.730469 310.761719 C 307.105469 310.761719 303.753906 311.6875 301.71875 313.535156 C 299.664062 315.398438 298.578125 317.800781 298.441406 320.785156 C 298.304688 325.9375 298.207031 330.734375 298.144531 335.164062 C 298.070312 339.601562 298.207031 344.421875 298.539062 349.648438 L 272.152344 349.648438 C 271.953125 345.210938 271.804688 341.042969 271.707031 337.097656 C 271.609375 333.164062 271.632812 329.476562 271.757812 326.039062 C 272.285156 312.871094 275.675781 303.449219 281.925781 297.753906 C 288.175781 292.070312 298.109375 289.234375 311.730469 289.234375 C 326.148438 289.234375 336.441406 292.070312 342.628906 297.753906 C 348.804688 303.449219 352.15625 312.871094 352.6875 326.039062 C 352.945312 332.648438 352.945312 338.898438 352.6875 344.792969 C 352.292969 355.371094 349.582031 363.890625 344.566406 370.328125 C 339.523438 376.789062 332.992188 382.226562 324.917969 386.652344 L 309.941406 394.789062 C 305.714844 397.109375 302.792969 400.558594 301.164062 405.160156 C 299.539062 409.757812 298.738281 413.976562 298.738281 417.808594 L 298.738281 426.738281 L 350.800781 426.738281 L 350.800781 449.855469 L 271.953125 449.855469"/><path fill="#FFF" d="M 385.71875 385.160156 L 408.128906 385.160156 L 411.605469 347.269531 L 414.671875 314.226562 L 409.125 314.226562 L 398.808594 347.269531 Z M 408.128906 449.855469 L 408.128906 408.082031 L 360.132812 408.082031 L 360.132812 386.355469 L 397.613281 291.105469 L 433.125 291.105469 L 433.125 385.160156 L 450.578125 385.160156 L 450.578125 408.082031 L 433.125 408.082031 L 433.125 449.855469 L 408.128906 449.855469"/><path fill="#FFF" d="M 555.210938 449.855469 L 600.730469 314.226562 L 544.007812 314.226562 L 544.007812 291.105469 L 627.304688 291.105469 L 627.304688 314.816406 L 582.882812 449.855469 L 555.210938 449.855469"/><path fill="#FFF" d="M 485.929688 467.648438 L 533.972656 279.34375 L 508.1875 279.34375 L 460.128906 467.648438 L 485.929688 467.648438"/></svg>