<svg xmlns="http://www.w3.org/2000/svg" width="810" viewBox="0 0 810 810" height="810" version="1.0"><path fill="#FFF" d="M 27 675 C 27 653.683594 58.050781 648 76.34375 648 L 199.867188 648 L 279.261719 674.3125 C 280.640625 674.777344 282.058594 675.011719 283.511719 675.011719 C 284.96875 675.011719 286.386719 674.777344 287.765625 674.3125 L 351 653.238281 L 351 666.65625 L 281.597656 701.351562 L 218.699219 688.769531 C 218.210938 688.671875 217.71875 688.597656 217.222656 688.550781 C 216.726562 688.507812 216.226562 688.488281 215.726562 688.5 C 215.230469 688.507812 214.734375 688.546875 214.238281 688.613281 C 213.742188 688.675781 213.253906 688.769531 212.769531 688.890625 C 212.285156 689.007812 211.808594 689.152344 211.339844 689.328125 C 210.871094 689.5 210.414062 689.695312 209.96875 689.917969 C 209.523438 690.140625 209.089844 690.390625 208.671875 690.660156 C 208.25 690.929688 207.847656 691.222656 207.460938 691.539062 C 207.074219 691.855469 206.707031 692.191406 206.359375 692.546875 C 206.007812 692.90625 205.679688 693.277344 205.375 693.671875 C 205.066406 694.066406 204.78125 694.472656 204.519531 694.898438 C 204.253906 695.324219 204.015625 695.761719 203.804688 696.210938 C 203.589844 696.660156 203.402344 697.125 203.238281 697.59375 C 203.074219 698.066406 202.941406 698.546875 202.828125 699.03125 C 202.71875 699.519531 202.636719 700.011719 202.582031 700.507812 C 202.527344 701.003906 202.5 701.5 202.5 702 L 202.5 810 L 229.5 810 L 229.5 718.46875 L 280.800781 728.730469 C 282.269531 729.015625 283.75 729.0625 285.234375 728.867188 C 286.71875 728.671875 288.136719 728.242188 289.480469 727.582031 L 370.480469 687.082031 C 371.609375 686.527344 372.636719 685.824219 373.566406 684.980469 C 374.5 684.136719 375.296875 683.179688 375.960938 682.113281 C 376.625 681.046875 377.132812 679.90625 377.476562 678.699219 C 377.824219 677.488281 378 676.257812 378 675 L 378 634.5 C 378 633.429688 377.875 632.375 377.625 631.332031 C 377.375 630.292969 377.007812 629.296875 376.519531 628.34375 C 376.035156 627.390625 375.441406 626.507812 374.746094 625.695312 C 374.046875 624.882812 373.265625 624.164062 372.398438 623.539062 C 371.53125 622.910156 370.605469 622.394531 369.613281 621.988281 C 368.625 621.585938 367.601562 621.300781 366.546875 621.140625 C 365.488281 620.984375 364.429688 620.949219 363.363281 621.046875 C 362.296875 621.140625 361.261719 621.359375 360.246094 621.703125 L 283.5 647.269531 L 206.28125 621.6875 C 204.902344 621.234375 203.492188 621.003906 202.039062 621 L 162.242188 621 C 163.253906 620.492188 164.246094 619.960938 165.226562 619.398438 C 166.207031 618.835938 167.171875 618.246094 168.117188 617.628906 C 169.0625 617.015625 169.992188 616.375 170.902344 615.707031 C 171.816406 615.039062 172.707031 614.347656 173.578125 613.628906 C 174.453125 612.910156 175.304688 612.171875 176.132812 611.40625 C 176.964844 610.640625 177.773438 609.851562 178.5625 609.042969 C 179.347656 608.234375 180.113281 607.402344 180.855469 606.550781 C 181.59375 605.699219 182.3125 604.824219 183.003906 603.933594 C 183.695312 603.039062 184.363281 602.128906 185.003906 601.199219 C 185.644531 600.269531 186.261719 599.324219 186.847656 598.359375 C 187.4375 597.394531 188 596.414062 188.53125 595.417969 C 189.066406 594.425781 189.574219 593.414062 190.050781 592.390625 C 190.527344 591.367188 190.976562 590.332031 191.398438 589.285156 C 191.816406 588.234375 192.207031 587.175781 192.566406 586.105469 C 192.929688 585.035156 193.257812 583.957031 193.558594 582.867188 C 193.859375 581.777344 194.128906 580.679688 194.371094 579.578125 C 194.609375 578.472656 194.816406 577.363281 194.996094 576.25 C 195.171875 575.132812 195.320312 574.015625 195.433594 572.890625 C 195.550781 571.765625 195.632812 570.640625 195.683594 569.511719 C 195.738281 568.382812 195.757812 567.253906 195.746094 566.125 C 195.738281 564.996094 195.695312 563.867188 195.621094 562.742188 C 195.546875 561.613281 195.441406 560.488281 195.304688 559.367188 C 195.167969 558.246094 195.003906 557.132812 194.804688 556.019531 C 194.605469 554.90625 194.375 553.800781 194.117188 552.703125 C 193.855469 551.605469 193.5625 550.511719 193.242188 549.429688 C 192.921875 548.347656 192.570312 547.273438 192.191406 546.210938 C 191.808594 545.148438 191.398438 544.09375 190.960938 543.054688 C 190.519531 542.015625 190.050781 540.988281 189.554688 539.972656 C 189.058594 538.957031 188.53125 537.960938 187.980469 536.972656 C 187.425781 535.988281 186.847656 535.019531 186.242188 534.066406 C 185.632812 533.113281 185 532.179688 184.34375 531.261719 C 183.683594 530.34375 183 529.445312 182.289062 528.566406 C 181.582031 527.6875 180.847656 526.828125 180.09375 525.992188 C 179.335938 525.152344 178.554688 524.335938 177.753906 523.542969 C 176.949219 522.746094 176.125 521.976562 175.28125 521.226562 C 174.4375 520.476562 173.570312 519.753906 172.683594 519.050781 C 171.796875 518.351562 170.894531 517.675781 169.96875 517.023438 C 169.046875 516.375 168.105469 515.75 167.148438 515.152344 C 166.1875 514.554688 165.214844 513.984375 164.222656 513.441406 C 163.234375 512.898438 162.230469 512.382812 161.210938 511.894531 C 160.191406 511.410156 159.160156 510.949219 158.113281 510.519531 C 157.070312 510.089844 156.015625 509.691406 154.949219 509.320312 C 153.882812 508.949219 152.804688 508.609375 151.71875 508.296875 C 150.632812 507.984375 149.539062 507.707031 148.4375 507.457031 C 147.335938 507.207031 146.230469 506.988281 145.117188 506.800781 C 144 506.609375 142.882812 506.453125 141.761719 506.328125 C 140.636719 506.203125 139.511719 506.109375 138.386719 506.046875 C 137.257812 505.980469 136.128906 505.949219 135 505.949219 C 133.871094 505.949219 132.742188 505.984375 131.613281 506.046875 C 130.488281 506.109375 129.363281 506.203125 128.238281 506.328125 C 127.117188 506.453125 126 506.609375 124.882812 506.800781 C 123.769531 506.988281 122.664062 507.207031 121.5625 507.457031 C 120.460938 507.707031 119.367188 507.984375 118.28125 508.296875 C 117.195312 508.609375 116.117188 508.949219 115.050781 509.320312 C 113.984375 509.691406 112.929688 510.089844 111.886719 510.519531 C 110.839844 510.949219 109.808594 511.410156 108.789062 511.894531 C 107.769531 512.382812 106.765625 512.898438 105.777344 513.441406 C 104.785156 513.984375 103.8125 514.554688 102.851562 515.152344 C 101.894531 515.75 100.953125 516.375 100.03125 517.023438 C 99.105469 517.675781 98.203125 518.351562 97.316406 519.050781 C 96.429688 519.753906 95.5625 520.476562 94.71875 521.226562 C 93.875 521.976562 93.050781 522.746094 92.246094 523.542969 C 91.445312 524.335938 90.664062 525.152344 89.90625 525.992188 C 89.152344 526.828125 88.417969 527.6875 87.710938 528.566406 C 87 529.445312 86.316406 530.34375 85.65625 531.261719 C 85 532.179688 84.367188 533.113281 83.757812 534.066406 C 83.152344 535.019531 82.574219 535.988281 82.019531 536.972656 C 81.46875 537.960938 80.941406 538.957031 80.445312 539.972656 C 79.949219 540.988281 79.480469 542.015625 79.039062 543.054688 C 78.601562 544.09375 78.191406 545.148438 77.808594 546.210938 C 77.429688 547.273438 77.078125 548.347656 76.757812 549.429688 C 76.4375 550.511719 76.144531 551.605469 75.882812 552.703125 C 75.625 553.800781 75.394531 554.90625 75.195312 556.019531 C 74.996094 557.132812 74.832031 558.246094 74.695312 559.367188 C 74.558594 560.488281 74.453125 561.613281 74.378906 562.742188 C 74.304688 563.867188 74.261719 564.996094 74.253906 566.125 C 74.242188 567.253906 74.261719 568.382812 74.316406 569.511719 C 74.367188 570.640625 74.449219 571.765625 74.566406 572.890625 C 74.679688 574.015625 74.828125 575.132812 75.003906 576.25 C 75.183594 577.363281 75.390625 578.472656 75.628906 579.578125 C 75.871094 580.679688 76.140625 581.777344 76.441406 582.867188 C 76.742188 583.957031 77.070312 585.035156 77.433594 586.105469 C 77.792969 587.175781 78.183594 588.234375 78.601562 589.285156 C 79.023438 590.332031 79.472656 591.367188 79.949219 592.390625 C 80.425781 593.414062 80.933594 594.425781 81.46875 595.417969 C 82 596.414062 82.5625 597.394531 83.152344 598.359375 C 83.738281 599.324219 84.355469 600.269531 84.996094 601.199219 C 85.636719 602.128906 86.304688 603.039062 86.996094 603.933594 C 87.6875 604.824219 88.40625 605.699219 89.144531 606.550781 C 89.886719 607.402344 90.652344 608.234375 91.4375 609.042969 C 92.226562 609.851562 93.035156 610.640625 93.867188 611.40625 C 94.695312 612.171875 95.546875 612.910156 96.421875 613.628906 C 97.292969 614.347656 98.183594 615.039062 99.097656 615.707031 C 100.007812 616.375 100.9375 617.015625 101.882812 617.628906 C 102.828125 618.246094 103.792969 618.835938 104.773438 619.398438 C 105.753906 619.960938 106.746094 620.492188 107.757812 621 L 76.34375 621 C 30.671875 621 0 642.695312 0 675 L 0 810 L 27 810 Z M 135 533.25 C 136.105469 533.25 137.207031 533.304688 138.308594 533.414062 C 139.40625 533.519531 140.5 533.683594 141.585938 533.898438 C 142.667969 534.113281 143.738281 534.382812 144.796875 534.703125 C 145.855469 535.023438 146.894531 535.394531 147.914062 535.820312 C 148.9375 536.242188 149.933594 536.714844 150.910156 537.234375 C 151.882812 537.757812 152.832031 538.324219 153.75 538.9375 C 154.667969 539.550781 155.554688 540.210938 156.410156 540.910156 C 157.265625 541.613281 158.082031 542.351562 158.863281 543.136719 C 159.644531 543.917969 160.386719 544.734375 161.089844 545.589844 C 161.789062 546.445312 162.449219 547.332031 163.0625 548.25 C 163.675781 549.167969 164.242188 550.117188 164.765625 551.089844 C 165.285156 552.066406 165.757812 553.0625 166.179688 554.085938 C 166.605469 555.105469 166.976562 556.144531 167.296875 557.203125 C 167.617188 558.261719 167.886719 559.332031 168.101562 560.414062 C 168.316406 561.5 168.480469 562.59375 168.585938 563.691406 C 168.695312 564.792969 168.75 565.894531 168.75 567 C 168.75 568.105469 168.695312 569.207031 168.585938 570.308594 C 168.480469 571.40625 168.316406 572.5 168.101562 573.585938 C 167.886719 574.667969 167.617188 575.738281 167.296875 576.796875 C 166.976562 577.855469 166.605469 578.894531 166.179688 579.914062 C 165.757812 580.9375 165.285156 581.933594 164.765625 582.910156 C 164.242188 583.882812 163.675781 584.832031 163.0625 585.75 C 162.449219 586.667969 161.789062 587.554688 161.089844 588.410156 C 160.386719 589.265625 159.644531 590.082031 158.863281 590.863281 C 158.082031 591.644531 157.265625 592.386719 156.410156 593.089844 C 155.554688 593.789062 154.667969 594.449219 153.75 595.0625 C 152.832031 595.675781 151.882812 596.242188 150.910156 596.765625 C 149.933594 597.285156 148.9375 597.757812 147.914062 598.179688 C 146.894531 598.605469 145.855469 598.976562 144.796875 599.296875 C 143.738281 599.617188 142.667969 599.886719 141.585938 600.101562 C 140.5 600.316406 139.40625 600.480469 138.308594 600.585938 C 137.207031 600.695312 136.105469 600.75 135 600.75 C 133.894531 600.75 132.792969 600.695312 131.691406 600.585938 C 130.59375 600.480469 129.5 600.316406 128.414062 600.101562 C 127.332031 599.886719 126.261719 599.617188 125.203125 599.296875 C 124.144531 598.976562 123.105469 598.605469 122.085938 598.179688 C 121.0625 597.757812 120.066406 597.285156 119.089844 596.765625 C 118.117188 596.242188 117.167969 595.675781 116.25 595.0625 C 115.332031 594.449219 114.445312 593.789062 113.589844 593.089844 C 112.734375 592.386719 111.917969 591.644531 111.136719 590.863281 C 110.355469 590.082031 109.613281 589.265625 108.910156 588.410156 C 108.210938 587.554688 107.550781 586.667969 106.9375 585.75 C 106.324219 584.832031 105.757812 583.882812 105.234375 582.910156 C 104.714844 581.933594 104.242188 580.9375 103.820312 579.914062 C 103.394531 578.894531 103.023438 577.855469 102.703125 576.796875 C 102.382812 575.738281 102.113281 574.667969 101.898438 573.585938 C 101.683594 572.5 101.519531 571.40625 101.414062 570.308594 C 101.304688 569.207031 101.25 568.105469 101.25 567 C 101.25 565.894531 101.304688 564.792969 101.414062 563.691406 C 101.519531 562.59375 101.683594 561.5 101.898438 560.414062 C 102.113281 559.332031 102.382812 558.261719 102.703125 557.203125 C 103.023438 556.144531 103.394531 555.105469 103.820312 554.085938 C 104.242188 553.0625 104.714844 552.066406 105.234375 551.089844 C 105.757812 550.117188 106.324219 549.167969 106.9375 548.25 C 107.550781 547.332031 108.210938 546.445312 108.910156 545.589844 C 109.613281 544.734375 110.355469 543.917969 111.136719 543.136719 C 111.917969 542.351562 112.734375 541.613281 113.589844 540.910156 C 114.445312 540.210938 115.332031 539.550781 116.25 538.9375 C 117.167969 538.324219 118.117188 537.757812 119.089844 537.234375 C 120.066406 536.714844 121.0625 536.242188 122.085938 535.820312 C 123.105469 535.394531 124.144531 535.023438 125.203125 534.703125 C 126.261719 534.382812 127.332031 534.113281 128.414062 533.898438 C 129.5 533.683594 130.59375 533.519531 131.691406 533.414062 C 132.792969 533.304688 133.894531 533.25 135 533.25 Z M 135 533.25"/><path fill="#FFF" d="M 54 702 L 81 702 L 81 810 L 54 810 Z M 54 702"/><path fill="#FFF" d="M 251.179688 563.976562 L 318.679688 592.90625 C 320.378906 593.632812 322.152344 594 324 594 C 325.847656 594 327.621094 593.632812 329.320312 592.90625 L 396.820312 563.976562 C 398.03125 563.457031 399.148438 562.769531 400.160156 561.925781 C 401.171875 561.078125 402.042969 560.101562 402.769531 559 C 403.496094 557.894531 404.050781 556.710938 404.429688 555.449219 C 404.808594 554.183594 405 552.890625 405 551.570312 L 405 474.429688 C 405 473.109375 404.808594 471.816406 404.429688 470.550781 C 404.050781 469.285156 403.496094 468.101562 402.769531 467 C 402.042969 465.898438 401.171875 464.921875 400.160156 464.074219 C 399.148438 463.226562 398.03125 462.542969 396.820312 462.023438 L 329.320312 433.09375 C 327.621094 432.371094 325.847656 432.007812 324 432.007812 C 322.152344 432.007812 320.378906 432.371094 318.679688 433.09375 L 251.179688 462.023438 C 249.96875 462.542969 248.851562 463.230469 247.839844 464.074219 C 246.828125 464.921875 245.957031 465.898438 245.230469 467 C 244.503906 468.105469 243.949219 469.289062 243.570312 470.550781 C 243.191406 471.816406 243 473.109375 243 474.429688 L 243 551.570312 C 243 552.890625 243.191406 554.183594 243.570312 555.449219 C 243.949219 556.714844 244.503906 557.898438 245.230469 559 C 245.957031 560.101562 246.828125 561.078125 247.839844 561.925781 C 248.851562 562.773438 249.96875 563.457031 251.179688 563.976562 Z M 270 494.898438 L 310.5 512.257812 L 310.5 560.035156 L 270 542.699219 Z M 337.5 560.035156 L 337.5 512.257812 L 378 494.898438 L 378 542.699219 Z M 324 460.132812 L 357.238281 474.375 L 324 488.699219 L 290.761719 474.457031 Z M 324 460.132812"/><path fill="#FFF" d="M 733.65625 229.5 L 702.242188 229.5 C 703.253906 228.992188 704.246094 228.460938 705.226562 227.898438 C 706.207031 227.335938 707.167969 226.746094 708.117188 226.128906 C 709.0625 225.515625 709.992188 224.875 710.902344 224.207031 C 711.816406 223.539062 712.707031 222.847656 713.578125 222.128906 C 714.453125 221.410156 715.304688 220.671875 716.132812 219.90625 C 716.964844 219.140625 717.773438 218.351562 718.5625 217.542969 C 719.347656 216.734375 720.113281 215.902344 720.855469 215.050781 C 721.59375 214.199219 722.3125 213.324219 723.003906 212.433594 C 723.695312 211.539062 724.363281 210.628906 725.003906 209.699219 C 725.644531 208.769531 726.261719 207.824219 726.847656 206.859375 C 727.4375 205.894531 728 204.914062 728.53125 203.917969 C 729.066406 202.925781 729.574219 201.914062 730.050781 200.890625 C 730.527344 199.867188 730.976562 198.832031 731.398438 197.785156 C 731.816406 196.734375 732.207031 195.675781 732.566406 194.605469 C 732.929688 193.535156 733.257812 192.457031 733.558594 191.367188 C 733.859375 190.277344 734.128906 189.179688 734.371094 188.078125 C 734.609375 186.972656 734.816406 185.863281 734.996094 184.75 C 735.171875 183.632812 735.320312 182.515625 735.433594 181.390625 C 735.550781 180.265625 735.632812 179.140625 735.683594 178.011719 C 735.738281 176.882812 735.757812 175.753906 735.746094 174.625 C 735.738281 173.496094 735.695312 172.367188 735.621094 171.242188 C 735.546875 170.113281 735.441406 168.988281 735.304688 167.867188 C 735.167969 166.746094 735.003906 165.632812 734.804688 164.519531 C 734.605469 163.40625 734.375 162.300781 734.113281 161.203125 C 733.855469 160.105469 733.5625 159.011719 733.242188 157.929688 C 732.921875 156.847656 732.570312 155.773438 732.191406 154.710938 C 731.808594 153.648438 731.398438 152.59375 730.960938 151.554688 C 730.519531 150.515625 730.050781 149.488281 729.554688 148.472656 C 729.058594 147.457031 728.53125 146.460938 727.980469 145.472656 C 727.425781 144.488281 726.847656 143.519531 726.242188 142.566406 C 725.632812 141.613281 725 140.679688 724.34375 139.761719 C 723.683594 138.84375 723 137.945312 722.289062 137.066406 C 721.582031 136.1875 720.847656 135.328125 720.09375 134.492188 C 719.335938 133.652344 718.554688 132.835938 717.753906 132.042969 C 716.949219 131.246094 716.125 130.476562 715.28125 129.726562 C 714.4375 128.976562 713.570312 128.253906 712.683594 127.550781 C 711.796875 126.851562 710.894531 126.175781 709.96875 125.523438 C 709.046875 124.875 708.105469 124.25 707.148438 123.652344 C 706.1875 123.054688 705.214844 122.484375 704.222656 121.941406 C 703.234375 121.398438 702.230469 120.882812 701.210938 120.394531 C 700.191406 119.910156 699.160156 119.449219 698.113281 119.019531 C 697.070312 118.589844 696.015625 118.191406 694.949219 117.820312 C 693.882812 117.449219 692.804688 117.109375 691.71875 116.796875 C 690.632812 116.484375 689.539062 116.207031 688.4375 115.957031 C 687.335938 115.707031 686.230469 115.488281 685.117188 115.300781 C 684 115.109375 682.882812 114.953125 681.761719 114.828125 C 680.636719 114.703125 679.511719 114.609375 678.386719 114.546875 C 677.257812 114.484375 676.128906 114.449219 675 114.449219 C 673.871094 114.449219 672.742188 114.484375 671.613281 114.546875 C 670.488281 114.609375 669.363281 114.703125 668.238281 114.828125 C 667.117188 114.953125 666 115.109375 664.882812 115.300781 C 663.769531 115.488281 662.664062 115.707031 661.5625 115.957031 C 660.460938 116.207031 659.367188 116.484375 658.28125 116.796875 C 657.195312 117.109375 656.117188 117.449219 655.050781 117.820312 C 653.984375 118.191406 652.929688 118.589844 651.886719 119.019531 C 650.839844 119.449219 649.808594 119.910156 648.789062 120.394531 C 647.769531 120.882812 646.765625 121.398438 645.777344 121.941406 C 644.785156 122.484375 643.8125 123.054688 642.851562 123.652344 C 641.894531 124.25 640.953125 124.875 640.03125 125.523438 C 639.105469 126.175781 638.203125 126.851562 637.316406 127.550781 C 636.429688 128.253906 635.5625 128.976562 634.71875 129.726562 C 633.875 130.476562 633.050781 131.246094 632.246094 132.042969 C 631.445312 132.835938 630.664062 133.652344 629.90625 134.492188 C 629.152344 135.328125 628.417969 136.1875 627.710938 137.066406 C 627 137.945312 626.316406 138.84375 625.65625 139.761719 C 625 140.679688 624.367188 141.613281 623.757812 142.566406 C 623.152344 143.519531 622.574219 144.488281 622.019531 145.472656 C 621.46875 146.460938 620.941406 147.457031 620.445312 148.472656 C 619.949219 149.488281 619.480469 150.515625 619.039062 151.554688 C 618.601562 152.59375 618.191406 153.648438 617.808594 154.710938 C 617.429688 155.773438 617.078125 156.847656 616.757812 157.929688 C 616.4375 159.011719 616.144531 160.105469 615.882812 161.203125 C 615.625 162.300781 615.394531 163.40625 615.195312 164.519531 C 614.996094 165.632812 614.832031 166.746094 614.695312 167.867188 C 614.558594 168.988281 614.453125 170.113281 614.378906 171.242188 C 614.304688 172.367188 614.261719 173.496094 614.253906 174.625 C 614.242188 175.753906 614.261719 176.882812 614.316406 178.011719 C 614.367188 179.140625 614.449219 180.265625 614.566406 181.390625 C 614.679688 182.515625 614.828125 183.632812 615.003906 184.75 C 615.183594 185.863281 615.390625 186.972656 615.628906 188.078125 C 615.871094 189.179688 616.140625 190.277344 616.441406 191.367188 C 616.742188 192.457031 617.070312 193.535156 617.433594 194.605469 C 617.792969 195.675781 618.183594 196.734375 618.601562 197.785156 C 619.023438 198.832031 619.472656 199.867188 619.949219 200.890625 C 620.425781 201.914062 620.933594 202.925781 621.46875 203.917969 C 622 204.914062 622.5625 205.894531 623.152344 206.859375 C 623.738281 207.824219 624.355469 208.769531 624.996094 209.699219 C 625.636719 210.628906 626.304688 211.539062 626.996094 212.433594 C 627.6875 213.324219 628.40625 214.199219 629.144531 215.050781 C 629.886719 215.902344 630.652344 216.734375 631.4375 217.542969 C 632.226562 218.351562 633.035156 219.140625 633.867188 219.90625 C 634.695312 220.671875 635.546875 221.410156 636.421875 222.128906 C 637.292969 222.847656 638.183594 223.539062 639.097656 224.207031 C 640.007812 224.875 640.9375 225.515625 641.882812 226.128906 C 642.828125 226.746094 643.792969 227.335938 644.773438 227.898438 C 645.753906 228.460938 646.746094 228.992188 647.757812 229.5 L 607.957031 229.5 C 606.507812 229.503906 605.097656 229.734375 603.71875 230.1875 L 526.5 255.769531 L 449.753906 230.203125 C 449.246094 230.035156 448.734375 229.898438 448.210938 229.789062 C 447.691406 229.683594 447.164062 229.605469 446.636719 229.5625 C 446.105469 229.519531 445.574219 229.503906 445.042969 229.523438 C 444.507812 229.539062 443.980469 229.589844 443.453125 229.671875 C 442.929688 229.75 442.410156 229.863281 441.894531 230.003906 C 441.382812 230.148438 440.878906 230.320312 440.386719 230.519531 C 439.894531 230.722656 439.417969 230.953125 438.949219 231.210938 C 438.484375 231.46875 438.035156 231.753906 437.605469 232.0625 C 437.171875 232.375 436.761719 232.710938 436.371094 233.070312 C 435.976562 233.429688 435.609375 233.8125 435.261719 234.214844 C 434.914062 234.621094 434.59375 235.042969 434.296875 235.484375 C 434 235.925781 433.730469 236.382812 433.484375 236.855469 C 433.242188 237.332031 433.027344 237.816406 432.84375 238.316406 C 432.660156 238.816406 432.503906 239.324219 432.378906 239.839844 C 432.253906 240.359375 432.160156 240.878906 432.097656 241.410156 C 432.03125 241.9375 432 242.46875 432 243 L 432 283.5 C 432 284.753906 432.171875 285.984375 432.511719 287.191406 C 432.855469 288.398438 433.355469 289.535156 434.015625 290.601562 C 434.675781 291.667969 435.46875 292.625 436.394531 293.472656 C 437.320312 294.320312 438.34375 295.023438 439.464844 295.582031 L 520.464844 336.082031 C 521.808594 336.746094 523.226562 337.175781 524.710938 337.371094 C 526.195312 337.566406 527.675781 337.519531 529.144531 337.230469 L 580.445312 326.96875 L 580.445312 418.5 L 607.445312 418.5 L 607.445312 310.5 C 607.445312 310 607.417969 309.503906 607.363281 309.007812 C 607.308594 308.511719 607.226562 308.019531 607.117188 307.535156 C 607.007812 307.046875 606.871094 306.566406 606.707031 306.09375 C 606.546875 305.625 606.355469 305.164062 606.144531 304.710938 C 605.929688 304.261719 605.691406 303.824219 605.429688 303.398438 C 605.167969 302.972656 604.882812 302.566406 604.574219 302.171875 C 604.265625 301.78125 603.9375 301.40625 603.589844 301.050781 C 603.238281 300.691406 602.871094 300.355469 602.484375 300.042969 C 602.097656 299.726562 601.695312 299.433594 601.277344 299.160156 C 600.859375 298.890625 600.425781 298.644531 599.980469 298.421875 C 599.53125 298.195312 599.074219 298 598.605469 297.828125 C 598.136719 297.65625 597.664062 297.507812 597.175781 297.390625 C 596.691406 297.269531 596.203125 297.179688 595.707031 297.113281 C 595.214844 297.046875 594.71875 297.011719 594.21875 297 C 593.71875 296.988281 593.222656 297.007812 592.726562 297.050781 C 592.226562 297.097656 591.734375 297.171875 591.246094 297.269531 L 528.296875 309.851562 L 459 275.15625 L 459 261.738281 L 522.234375 282.796875 C 523.613281 283.261719 525.03125 283.496094 526.488281 283.496094 C 527.941406 283.496094 529.359375 283.261719 530.738281 282.796875 L 610.199219 256.5 L 733.726562 256.5 C 751.949219 256.5 783 262.183594 783 283.5 L 783 418.5 L 810 418.5 L 810 283.5 C 810 251.195312 779.328125 229.5 733.65625 229.5 Z M 675 141.75 C 676.105469 141.75 677.207031 141.804688 678.308594 141.914062 C 679.40625 142.019531 680.5 142.183594 681.585938 142.398438 C 682.667969 142.613281 683.738281 142.882812 684.796875 143.203125 C 685.855469 143.523438 686.894531 143.894531 687.914062 144.320312 C 688.9375 144.742188 689.933594 145.214844 690.910156 145.734375 C 691.882812 146.257812 692.832031 146.824219 693.75 147.4375 C 694.667969 148.050781 695.554688 148.710938 696.410156 149.410156 C 697.265625 150.113281 698.082031 150.855469 698.863281 151.636719 C 699.644531 152.417969 700.386719 153.234375 701.089844 154.089844 C 701.789062 154.945312 702.449219 155.832031 703.0625 156.75 C 703.675781 157.667969 704.242188 158.617188 704.765625 159.589844 C 705.285156 160.566406 705.757812 161.5625 706.179688 162.585938 C 706.605469 163.605469 706.976562 164.644531 707.296875 165.703125 C 707.617188 166.761719 707.886719 167.832031 708.101562 168.914062 C 708.316406 170 708.480469 171.09375 708.585938 172.191406 C 708.695312 173.292969 708.75 174.394531 708.75 175.5 C 708.75 176.605469 708.695312 177.707031 708.585938 178.808594 C 708.480469 179.90625 708.316406 181 708.101562 182.085938 C 707.886719 183.167969 707.617188 184.238281 707.296875 185.296875 C 706.976562 186.355469 706.605469 187.394531 706.179688 188.414062 C 705.757812 189.4375 705.285156 190.433594 704.765625 191.410156 C 704.242188 192.382812 703.675781 193.332031 703.0625 194.25 C 702.449219 195.167969 701.789062 196.054688 701.089844 196.910156 C 700.386719 197.765625 699.644531 198.582031 698.863281 199.363281 C 698.082031 200.144531 697.265625 200.886719 696.410156 201.589844 C 695.554688 202.289062 694.667969 202.949219 693.75 203.5625 C 692.832031 204.175781 691.882812 204.742188 690.910156 205.265625 C 689.933594 205.785156 688.9375 206.257812 687.914062 206.679688 C 686.894531 207.105469 685.855469 207.476562 684.796875 207.796875 C 683.738281 208.117188 682.667969 208.386719 681.585938 208.601562 C 680.5 208.816406 679.40625 208.980469 678.308594 209.085938 C 677.207031 209.195312 676.105469 209.25 675 209.25 C 673.894531 209.25 672.792969 209.195312 671.691406 209.085938 C 670.59375 208.980469 669.5 208.816406 668.414062 208.601562 C 667.332031 208.386719 666.261719 208.117188 665.203125 207.796875 C 664.144531 207.476562 663.105469 207.105469 662.085938 206.679688 C 661.0625 206.257812 660.066406 205.785156 659.089844 205.265625 C 658.117188 204.742188 657.167969 204.175781 656.25 203.5625 C 655.332031 202.949219 654.445312 202.289062 653.589844 201.589844 C 652.734375 200.886719 651.917969 200.144531 651.136719 199.363281 C 650.355469 198.582031 649.613281 197.765625 648.910156 196.910156 C 648.210938 196.054688 647.550781 195.167969 646.9375 194.25 C 646.324219 193.332031 645.757812 192.382812 645.234375 191.410156 C 644.714844 190.433594 644.242188 189.4375 643.820312 188.414062 C 643.394531 187.394531 643.023438 186.355469 642.703125 185.296875 C 642.382812 184.238281 642.113281 183.167969 641.898438 182.085938 C 641.683594 181 641.519531 179.90625 641.414062 178.808594 C 641.304688 177.707031 641.25 176.605469 641.25 175.5 C 641.25 174.394531 641.304688 173.292969 641.414062 172.191406 C 641.519531 171.09375 641.683594 170 641.898438 168.914062 C 642.113281 167.832031 642.382812 166.761719 642.703125 165.703125 C 643.023438 164.644531 643.394531 163.605469 643.820312 162.585938 C 644.242188 161.5625 644.714844 160.566406 645.234375 159.589844 C 645.757812 158.617188 646.324219 157.667969 646.9375 156.75 C 647.550781 155.832031 648.210938 154.945312 648.910156 154.089844 C 649.613281 153.234375 650.355469 152.417969 651.136719 151.636719 C 651.917969 150.855469 652.734375 150.113281 653.589844 149.410156 C 654.445312 148.710938 655.332031 148.050781 656.25 147.4375 C 657.167969 146.824219 658.117188 146.257812 659.089844 145.734375 C 660.066406 145.214844 661.0625 144.742188 662.085938 144.320312 C 663.105469 143.894531 664.144531 143.523438 665.203125 143.203125 C 666.261719 142.882812 667.332031 142.613281 668.414062 142.398438 C 669.5 142.183594 670.59375 142.019531 671.691406 141.914062 C 672.792969 141.804688 673.894531 141.75 675 141.75 Z M 675 141.75"/><path fill="#FFF" d="M 729 310.5 L 756 310.5 L 756 418.5 L 729 418.5 Z M 729 310.5"/><path fill="#FFF" d="M 540 74.25 L 567 74.25 C 566.878906 72.59375 566.679688 70.949219 566.402344 69.316406 C 566.121094 67.679688 565.761719 66.0625 565.324219 64.460938 C 564.886719 62.859375 564.371094 61.285156 563.78125 59.734375 C 563.1875 58.183594 562.523438 56.667969 561.785156 55.179688 C 561.042969 53.695312 560.234375 52.25 559.355469 50.84375 C 558.472656 49.4375 557.527344 48.078125 556.511719 46.765625 C 555.5 45.449219 554.425781 44.1875 553.289062 42.980469 C 552.152344 41.769531 550.960938 40.621094 549.710938 39.527344 C 548.460938 38.433594 547.164062 37.40625 545.8125 36.441406 C 544.464844 35.472656 543.070312 34.574219 541.636719 33.746094 C 540.199219 32.914062 538.722656 32.15625 537.214844 31.472656 C 535.703125 30.785156 534.164062 30.175781 532.59375 29.640625 C 531.023438 29.101562 529.429688 28.644531 527.8125 28.265625 C 526.199219 27.882812 524.570312 27.582031 522.925781 27.359375 C 521.28125 27.140625 519.628906 27 517.972656 26.9375 C 516.3125 26.878906 514.65625 26.898438 513 27 L 513 0 L 486 0 L 486 27 C 484.34375 26.898438 482.6875 26.878906 481.027344 26.9375 C 479.371094 27 477.71875 27.140625 476.074219 27.359375 C 474.429688 27.582031 472.800781 27.882812 471.1875 28.265625 C 469.570312 28.644531 467.976562 29.101562 466.40625 29.640625 C 464.835938 30.175781 463.296875 30.785156 461.785156 31.472656 C 460.277344 32.15625 458.800781 32.914062 457.363281 33.746094 C 455.929688 34.574219 454.535156 35.472656 453.1875 36.441406 C 451.835938 37.40625 450.539062 38.433594 449.289062 39.527344 C 448.039062 40.621094 446.847656 41.769531 445.710938 42.980469 C 444.574219 44.1875 443.5 45.449219 442.488281 46.765625 C 441.472656 48.078125 440.527344 49.4375 439.644531 50.84375 C 438.765625 52.25 437.957031 53.695312 437.214844 55.179688 C 436.476562 56.667969 435.8125 58.183594 435.21875 59.734375 C 434.628906 61.285156 434.113281 62.859375 433.675781 64.460938 C 433.238281 66.0625 432.878906 67.679688 432.597656 69.316406 C 432.320312 70.949219 432.121094 72.59375 432 74.25 C 432.121094 75.90625 432.320312 77.550781 432.597656 79.1875 C 432.878906 80.820312 433.238281 82.4375 433.675781 84.039062 C 434.113281 85.640625 434.628906 87.214844 435.21875 88.765625 C 435.8125 90.316406 436.476562 91.832031 437.214844 93.320312 C 437.957031 94.804688 438.765625 96.25 439.644531 97.65625 C 440.527344 99.0625 441.472656 100.421875 442.488281 101.734375 C 443.5 103.050781 444.574219 104.3125 445.710938 105.519531 C 446.847656 106.730469 448.039062 107.878906 449.289062 108.972656 C 450.539062 110.066406 451.835938 111.09375 453.1875 112.058594 C 454.535156 113.027344 455.929688 113.925781 457.363281 114.753906 C 458.800781 115.585938 460.277344 116.34375 461.785156 117.027344 C 463.296875 117.714844 464.835938 118.324219 466.40625 118.863281 C 467.976562 119.398438 469.570312 119.855469 471.1875 120.234375 C 472.800781 120.617188 474.429688 120.917969 476.074219 121.140625 C 477.71875 121.359375 479.371094 121.5 481.027344 121.5625 C 482.6875 121.621094 484.34375 121.601562 486 121.5 L 486 162 C 471.367188 162 459 152.726562 459 141.75 L 432 141.75 C 432.121094 143.40625 432.320312 145.050781 432.597656 146.6875 C 432.878906 148.320312 433.238281 149.9375 433.675781 151.539062 C 434.113281 153.140625 434.628906 154.714844 435.21875 156.265625 C 435.8125 157.816406 436.476562 159.332031 437.214844 160.820312 C 437.957031 162.304688 438.765625 163.75 439.644531 165.15625 C 440.527344 166.5625 441.472656 167.921875 442.488281 169.234375 C 443.5 170.550781 444.574219 171.8125 445.710938 173.019531 C 446.847656 174.230469 448.039062 175.378906 449.289062 176.472656 C 450.539062 177.566406 451.835938 178.59375 453.1875 179.558594 C 454.535156 180.527344 455.929688 181.425781 457.363281 182.253906 C 458.800781 183.085938 460.277344 183.84375 461.785156 184.527344 C 463.296875 185.214844 464.835938 185.824219 466.40625 186.363281 C 467.976562 186.898438 469.570312 187.355469 471.1875 187.734375 C 472.800781 188.117188 474.429688 188.417969 476.074219 188.640625 C 477.71875 188.859375 479.371094 189 481.027344 189.0625 C 482.6875 189.121094 484.34375 189.101562 486 189 L 486 216 L 513 216 L 513 189 C 514.65625 189.101562 516.3125 189.121094 517.972656 189.0625 C 519.628906 189 521.28125 188.859375 522.925781 188.640625 C 524.570312 188.417969 526.199219 188.117188 527.8125 187.734375 C 529.429688 187.355469 531.023438 186.898438 532.59375 186.363281 C 534.164062 185.824219 535.703125 185.214844 537.214844 184.527344 C 538.722656 183.84375 540.199219 183.085938 541.636719 182.253906 C 543.070312 181.425781 544.464844 180.527344 545.8125 179.558594 C 547.164062 178.59375 548.460938 177.566406 549.710938 176.472656 C 550.960938 175.378906 552.152344 174.230469 553.289062 173.019531 C 554.425781 171.8125 555.5 170.550781 556.511719 169.234375 C 557.527344 167.921875 558.472656 166.5625 559.355469 165.15625 C 560.234375 163.75 561.042969 162.304688 561.785156 160.820312 C 562.523438 159.332031 563.1875 157.816406 563.78125 156.265625 C 564.371094 154.714844 564.886719 153.140625 565.324219 151.539062 C 565.761719 149.9375 566.121094 148.320312 566.402344 146.6875 C 566.679688 145.050781 566.878906 143.40625 567 141.75 C 566.878906 140.09375 566.679688 138.449219 566.402344 136.816406 C 566.121094 135.179688 565.761719 133.5625 565.324219 131.960938 C 564.886719 130.359375 564.371094 128.785156 563.78125 127.234375 C 563.1875 125.683594 562.523438 124.167969 561.785156 122.679688 C 561.042969 121.195312 560.234375 119.75 559.355469 118.34375 C 558.472656 116.9375 557.527344 115.578125 556.511719 114.265625 C 555.5 112.949219 554.425781 111.6875 553.289062 110.480469 C 552.152344 109.269531 550.960938 108.121094 549.710938 107.027344 C 548.460938 105.933594 547.164062 104.90625 545.8125 103.941406 C 544.464844 102.972656 543.070312 102.074219 541.636719 101.246094 C 540.199219 100.414062 538.722656 99.65625 537.214844 98.972656 C 535.703125 98.285156 534.164062 97.675781 532.59375 97.140625 C 531.023438 96.601562 529.429688 96.144531 527.8125 95.765625 C 526.199219 95.382812 524.570312 95.082031 522.925781 94.859375 C 521.28125 94.640625 519.628906 94.5 517.972656 94.4375 C 516.3125 94.378906 514.65625 94.398438 513 94.5 L 513 54 C 527.632812 54 540 63.273438 540 74.25 Z M 540 141.75 C 540 152.726562 527.632812 162 513 162 L 513 121.5 C 527.632812 121.5 540 130.773438 540 141.75 Z M 486 94.5 C 471.367188 94.5 459 85.226562 459 74.25 C 459 63.273438 471.367188 54 486 54 Z M 486 94.5"/><path fill="#FFF" d="M 108 405 C 108.003906 400.140625 108.128906 395.285156 108.375 390.433594 C 108.617188 385.578125 108.980469 380.734375 109.460938 375.898438 C 109.941406 371.0625 110.539062 366.242188 111.257812 361.4375 C 111.976562 356.632812 112.808594 351.847656 113.761719 347.082031 C 114.714844 342.316406 115.78125 337.578125 116.96875 332.867188 C 118.152344 328.152344 119.449219 323.472656 120.863281 318.824219 C 122.277344 314.175781 123.804688 309.5625 125.445312 304.988281 C 127.085938 300.414062 128.835938 295.882812 130.699219 291.394531 C 132.558594 286.90625 134.53125 282.46875 136.609375 278.074219 C 138.691406 273.683594 140.875 269.347656 143.167969 265.0625 C 145.460938 260.777344 147.855469 256.550781 150.355469 252.386719 C 152.855469 248.21875 155.457031 244.113281 158.15625 240.074219 C 160.859375 236.035156 163.65625 232.066406 166.550781 228.164062 C 169.445312 224.261719 172.4375 220.429688 175.519531 216.675781 C 178.601562 212.921875 181.777344 209.242188 185.039062 205.640625 C 188.300781 202.042969 191.652344 198.523438 195.089844 195.089844 C 198.523438 191.652344 202.042969 188.300781 205.640625 185.039062 C 209.242188 181.777344 212.921875 178.601562 216.675781 175.519531 C 220.429688 172.4375 224.261719 169.445312 228.164062 166.550781 C 232.066406 163.65625 236.035156 160.859375 240.074219 158.15625 C 244.113281 155.457031 248.21875 152.855469 252.386719 150.355469 C 256.550781 147.855469 260.777344 145.460938 265.0625 143.167969 C 269.347656 140.875 273.683594 138.691406 278.074219 136.609375 C 282.46875 134.53125 286.90625 132.558594 291.394531 130.699219 C 295.882812 128.835938 300.414062 127.085938 304.988281 125.445312 C 309.5625 123.804688 314.175781 122.277344 318.824219 120.863281 C 323.472656 119.449219 328.152344 118.152344 332.867188 116.96875 C 337.578125 115.78125 342.316406 114.714844 347.082031 113.761719 C 351.847656 112.808594 356.632812 111.976562 361.4375 111.257812 C 366.242188 110.539062 371.0625 109.941406 375.898438 109.460938 C 380.734375 108.980469 385.578125 108.617188 390.433594 108.375 C 395.285156 108.128906 400.140625 108.003906 405 108 L 405 81 C 399.699219 81.007812 394.402344 81.140625 389.109375 81.40625 C 383.8125 81.675781 378.527344 82.070312 373.253906 82.59375 C 367.980469 83.121094 362.71875 83.773438 357.476562 84.554688 C 352.234375 85.339844 347.015625 86.25 341.816406 87.289062 C 336.617188 88.328125 331.449219 89.492188 326.308594 90.785156 C 321.167969 92.078125 316.0625 93.492188 310.988281 95.035156 C 305.917969 96.578125 300.886719 98.246094 295.898438 100.035156 C 290.910156 101.824219 285.964844 103.734375 281.070312 105.765625 C 276.171875 107.796875 271.328125 109.945312 266.539062 112.214844 C 261.75 114.484375 257.015625 116.867188 252.34375 119.367188 C 247.667969 121.871094 243.058594 124.484375 238.511719 127.210938 C 233.96875 129.9375 229.492188 132.773438 225.085938 135.71875 C 220.679688 138.667969 216.347656 141.71875 212.089844 144.878906 C 207.832031 148.035156 203.65625 151.296875 199.558594 154.660156 C 195.460938 158.023438 191.449219 161.484375 187.519531 165.046875 C 183.59375 168.605469 179.757812 172.257812 176.007812 176.007812 C 172.257812 179.757812 168.605469 183.59375 165.046875 187.519531 C 161.484375 191.449219 158.023438 195.460938 154.660156 199.558594 C 151.296875 203.65625 148.035156 207.832031 144.878906 212.089844 C 141.71875 216.347656 138.664062 220.679688 135.71875 225.085938 C 132.773438 229.492188 129.9375 233.96875 127.210938 238.511719 C 124.484375 243.058594 121.871094 247.667969 119.367188 252.34375 C 116.867188 257.015625 114.484375 261.75 112.214844 266.539062 C 109.945312 271.328125 107.796875 276.171875 105.765625 281.070312 C 103.734375 285.964844 101.824219 290.910156 100.035156 295.898438 C 98.246094 300.886719 96.578125 305.917969 95.035156 310.988281 C 93.492188 316.0625 92.078125 321.167969 90.785156 326.308594 C 89.492188 331.449219 88.328125 336.617188 87.289062 341.816406 C 86.25 347.015625 85.339844 352.234375 84.554688 357.476562 C 83.773438 362.71875 83.121094 367.980469 82.59375 373.253906 C 82.070312 378.527344 81.675781 383.8125 81.40625 389.109375 C 81.140625 394.402344 81.007812 399.699219 81 405 Z M 108 405"/><path fill="#FFF" d="M 726.300781 447.242188 L 699.53125 443.757812 C 698.941406 448.175781 698.253906 452.574219 697.46875 456.957031 C 696.683594 461.34375 695.796875 465.707031 694.816406 470.054688 C 693.835938 474.398438 692.753906 478.71875 691.578125 483.015625 C 690.402344 487.3125 689.132812 491.578125 687.761719 495.816406 C 686.394531 500.058594 684.933594 504.265625 683.375 508.4375 C 681.820312 512.609375 680.171875 516.746094 678.429688 520.847656 C 676.6875 524.945312 674.851562 529.003906 672.925781 533.023438 C 671.003906 537.039062 668.988281 541.011719 666.886719 544.9375 C 664.78125 548.863281 662.59375 552.742188 660.316406 556.570312 C 658.039062 560.398438 655.675781 564.175781 653.230469 567.898438 C 650.78125 571.621094 648.253906 575.285156 645.640625 578.894531 C 643.03125 582.503906 640.339844 586.050781 637.570312 589.539062 C 634.796875 593.027344 631.949219 596.449219 629.023438 599.808594 C 626.101562 603.167969 623.101562 606.460938 620.03125 609.6875 C 616.957031 612.914062 613.8125 616.066406 610.601562 619.152344 C 607.386719 622.234375 604.105469 625.246094 600.753906 628.183594 C 597.40625 631.121094 593.992188 633.980469 590.515625 636.761719 C 587.035156 639.546875 583.496094 642.25 579.898438 644.875 C 576.300781 647.5 572.644531 650.042969 568.929688 652.5 C 565.214844 654.960938 561.449219 657.335938 557.628906 659.628906 C 553.808594 661.917969 549.9375 664.125 546.019531 666.242188 C 542.101562 668.359375 538.136719 670.386719 534.125 672.324219 C 530.117188 674.265625 526.0625 676.113281 521.972656 677.871094 C 517.878906 679.628906 513.746094 681.292969 509.578125 682.863281 C 505.410156 684.4375 501.210938 685.914062 496.976562 687.296875 C 492.742188 688.679688 488.476562 689.964844 484.1875 691.15625 C 479.894531 692.347656 475.578125 693.445312 471.234375 694.441406 C 466.894531 695.4375 462.53125 696.339844 458.152344 697.140625 C 453.769531 697.941406 449.371094 698.644531 444.957031 699.25 C 440.546875 699.855469 436.121094 700.359375 431.683594 700.765625 C 427.25 701.171875 422.804688 701.476562 418.355469 701.683594 C 413.90625 701.886719 409.453125 701.992188 405 702 L 405 729 C 409.859375 728.992188 414.71875 728.878906 419.570312 728.652344 C 424.425781 728.425781 429.273438 728.09375 434.113281 727.652344 C 438.953125 727.207031 443.777344 726.65625 448.59375 725.996094 C 453.410156 725.339844 458.207031 724.570312 462.988281 723.695312 C 467.765625 722.820312 472.523438 721.839844 477.261719 720.75 C 481.996094 719.660156 486.707031 718.46875 491.390625 717.167969 C 496.070312 715.867188 500.722656 714.460938 505.34375 712.953125 C 509.960938 711.445312 514.546875 709.832031 519.09375 708.117188 C 523.640625 706.402344 528.144531 704.585938 532.609375 702.667969 C 537.078125 700.75 541.496094 698.734375 545.871094 696.617188 C 550.246094 694.503906 554.570312 692.289062 558.847656 689.980469 C 563.121094 687.667969 567.34375 685.265625 571.511719 682.765625 C 575.679688 680.265625 579.789062 677.671875 583.839844 674.988281 C 587.890625 672.304688 591.878906 669.53125 595.804688 666.667969 C 599.734375 663.804688 603.59375 660.851562 607.386719 657.816406 C 611.179688 654.777344 614.90625 651.660156 618.558594 648.453125 C 622.210938 645.25 625.792969 641.964844 629.296875 638.601562 C 632.804688 635.234375 636.234375 631.792969 639.585938 628.273438 C 642.9375 624.753906 646.207031 621.164062 649.398438 617.496094 C 652.589844 613.832031 655.695312 610.097656 658.71875 606.289062 C 661.742188 602.484375 664.675781 598.613281 667.523438 594.675781 C 670.375 590.738281 673.132812 586.738281 675.800781 582.679688 C 678.46875 578.617188 681.046875 574.5 683.53125 570.320312 C 686.015625 566.144531 688.402344 561.914062 690.699219 557.628906 C 692.992188 553.347656 695.1875 549.011719 697.289062 544.628906 C 699.386719 540.246094 701.386719 535.820312 703.289062 531.347656 C 705.1875 526.875 706.988281 522.359375 708.683594 517.808594 C 710.382812 513.253906 711.976562 508.664062 713.46875 504.039062 C 714.960938 499.414062 716.347656 494.757812 717.632812 490.070312 C 718.914062 485.382812 720.089844 480.667969 721.160156 475.929688 C 722.230469 471.1875 723.195312 466.425781 724.050781 461.644531 C 724.910156 456.859375 725.660156 452.058594 726.300781 447.242188 Z M 726.300781 447.242188"/></svg>